<?xml version="1.0" encoding="UTF-8" standalone="no"?>
<!DOCTYPE svg PUBLIC "-//W3C//DTD SVG 1.1//EN"
 "http://www.w3.org/Graphics/SVG/1.1/DTD/svg11.dtd">
<!-- Generated by graphviz version 2.38.0 (20140413.2041)
 -->
<!-- Title: snakemake_dag Pages: 1 -->
<svg width="740pt" height="332pt"
 viewBox="0.00 0.00 740.00 332.00" xmlns="http://www.w3.org/2000/svg" xmlns:xlink="http://www.w3.org/1999/xlink">
<g id="graph0" class="graph" transform="scale(1 1) rotate(0) translate(4 328)">
<title>snakemake_dag</title>
<polygon fill="white" stroke="none" points="-4,4 -4,-328 736,-328 736,4 -4,4"/>
<!-- 0 -->
<g id="node1" class="node"><title>0</title>
<path fill="none" stroke="#569ad8" stroke-width="2" d="M381,-36C381,-36 351,-36 351,-36 345,-36 339,-30 339,-24 339,-24 339,-12 339,-12 339,-6 345,-0 351,-0 351,-0 381,-0 381,-0 387,-0 393,-6 393,-12 393,-12 393,-24 393,-24 393,-30 387,-36 381,-36"/>
<text text-anchor="middle" x="366" y="-15.5" font-family="sans" font-size="10.00">all</text>
</g>
<!-- 1 -->
<g id="node2" class="node"><title>1</title>
<path fill="none" stroke="#d89556" stroke-width="2" stroke-dasharray="5,2" d="M42,-108C42,-108 12,-108 12,-108 6,-108 0,-102 0,-96 0,-96 0,-84 0,-84 0,-78 6,-72 12,-72 12,-72 42,-72 42,-72 48,-72 54,-78 54,-84 54,-84 54,-96 54,-96 54,-102 48,-108 42,-108"/>
<text text-anchor="middle" x="27" y="-87.5" font-family="sans" font-size="10.00">tsne</text>
</g>
<!-- 1&#45;&gt;0 -->
<g id="edge1" class="edge"><title>1&#45;&gt;0</title>
<path fill="none" stroke="grey" stroke-width="2" d="M54.2111,-75.2258C57.1353,-74.0252 60.1012,-72.9196 63,-72 155.966,-42.51 270.499,-28.1224 328.512,-22.2978"/>
<polygon fill="grey" stroke="grey" stroke-width="2" points="329.055,-25.7616 338.668,-21.3082 328.376,-18.7945 329.055,-25.7616"/>
</g>
<!-- 2 -->
<g id="node3" class="node"><title>2</title>
<path fill="none" stroke="#d89556" stroke-width="2" stroke-dasharray="5,2" d="M292,-108C292,-108 262,-108 262,-108 256,-108 250,-102 250,-96 250,-96 250,-84 250,-84 250,-78 256,-72 262,-72 262,-72 292,-72 292,-72 298,-72 304,-78 304,-84 304,-84 304,-96 304,-96 304,-102 298,-108 292,-108"/>
<text text-anchor="middle" x="277" y="-87.5" font-family="sans" font-size="10.00">tsne</text>
</g>
<!-- 2&#45;&gt;0 -->
<g id="edge2" class="edge"><title>2&#45;&gt;0</title>
<path fill="none" stroke="grey" stroke-width="2" d="M299,-71.6966C310.209,-62.8807 324.002,-52.0321 336.154,-42.4742"/>
<polygon fill="grey" stroke="grey" stroke-width="2" points="338.557,-45.0375 344.253,-36.1043 334.229,-39.5354 338.557,-45.0375"/>
</g>
<!-- 3 -->
<g id="node4" class="node"><title>3</title>
<path fill="none" stroke="#d85656" stroke-width="2" stroke-dasharray="5,2" d="M148,-108C148,-108 84,-108 84,-108 78,-108 72,-102 72,-96 72,-96 72,-84 72,-84 72,-78 78,-72 84,-72 84,-72 148,-72 148,-72 154,-72 160,-78 160,-84 160,-84 160,-96 160,-96 160,-102 154,-108 148,-108"/>
<text text-anchor="middle" x="116" y="-87.5" font-family="sans" font-size="10.00">factor_analysis</text>
</g>
<!-- 3&#45;&gt;0 -->
<g id="edge3" class="edge"><title>3&#45;&gt;0</title>
<path fill="none" stroke="grey" stroke-width="2" d="M160.198,-74.6499C163.172,-73.7378 166.127,-72.8468 169,-72 224.473,-55.6514 289.327,-38.596 329.027,-28.3866"/>
<polygon fill="grey" stroke="grey" stroke-width="2" points="329.982,-31.755 338.8,-25.8811 328.244,-24.9742 329.982,-31.755"/>
</g>
<!-- 4 -->
<g id="node5" class="node"><title>4</title>
<path fill="none" stroke="#d85656" stroke-width="2" stroke-dasharray="5,2" d="M398,-108C398,-108 334,-108 334,-108 328,-108 322,-102 322,-96 322,-96 322,-84 322,-84 322,-78 328,-72 334,-72 334,-72 398,-72 398,-72 404,-72 410,-78 410,-84 410,-84 410,-96 410,-96 410,-102 404,-108 398,-108"/>
<text text-anchor="middle" x="366" y="-87.5" font-family="sans" font-size="10.00">factor_analysis</text>
</g>
<!-- 4&#45;&gt;0 -->
<g id="edge4" class="edge"><title>4&#45;&gt;0</title>
<path fill="none" stroke="grey" stroke-width="2" d="M366,-71.6966C366,-63.9827 366,-54.7125 366,-46.1124"/>
<polygon fill="grey" stroke="grey" stroke-width="2" points="369.5,-46.1043 366,-36.1043 362.5,-46.1044 369.5,-46.1043"/>
</g>
<!-- 5 -->
<g id="node6" class="node"><title>5</title>
<path fill="none" stroke="#d89556" stroke-width="2" stroke-dasharray="5,2" d="M542,-108C542,-108 512,-108 512,-108 506,-108 500,-102 500,-96 500,-96 500,-84 500,-84 500,-78 506,-72 512,-72 512,-72 542,-72 542,-72 548,-72 554,-78 554,-84 554,-84 554,-96 554,-96 554,-102 548,-108 542,-108"/>
<text text-anchor="middle" x="527" y="-87.5" font-family="sans" font-size="10.00">tsne</text>
</g>
<!-- 5&#45;&gt;0 -->
<g id="edge5" class="edge"><title>5&#45;&gt;0</title>
<path fill="none" stroke="grey" stroke-width="2" d="M499.927,-76.0731C496.923,-74.6811 493.902,-73.2996 491,-72 461.563,-58.8155 427.882,-44.5832 402.904,-34.1901"/>
<polygon fill="grey" stroke="grey" stroke-width="2" points="404.025,-30.866 393.447,-30.2657 401.342,-37.3314 404.025,-30.866"/>
</g>
<!-- 6 -->
<g id="node7" class="node"><title>6</title>
<path fill="none" stroke="#d85656" stroke-width="2" stroke-dasharray="5,2" d="M648,-108C648,-108 584,-108 584,-108 578,-108 572,-102 572,-96 572,-96 572,-84 572,-84 572,-78 578,-72 584,-72 584,-72 648,-72 648,-72 654,-72 660,-78 660,-84 660,-84 660,-96 660,-96 660,-102 654,-108 648,-108"/>
<text text-anchor="middle" x="616" y="-87.5" font-family="sans" font-size="10.00">factor_analysis</text>
</g>
<!-- 6&#45;&gt;0 -->
<g id="edge6" class="edge"><title>6&#45;&gt;0</title>
<path fill="none" stroke="grey" stroke-width="2" d="M571.802,-74.6499C568.828,-73.7378 565.873,-72.8468 563,-72 507.527,-55.6514 442.673,-38.596 402.973,-28.3866"/>
<polygon fill="grey" stroke="grey" stroke-width="2" points="403.756,-24.9742 393.2,-25.8811 402.018,-31.755 403.756,-24.9742"/>
</g>
<!-- 7 -->
<g id="node8" class="node"><title>7</title>
<path fill="none" stroke="#d6d856" stroke-width="2" stroke-dasharray="5,2" d="M470,-108C470,-108 440,-108 440,-108 434,-108 428,-102 428,-96 428,-96 428,-84 428,-84 428,-78 434,-72 440,-72 440,-72 470,-72 470,-72 476,-72 482,-78 482,-84 482,-84 482,-96 482,-96 482,-102 476,-108 470,-108"/>
<text text-anchor="middle" x="455" y="-87.5" font-family="sans" font-size="10.00">pca</text>
</g>
<!-- 7&#45;&gt;0 -->
<g id="edge7" class="edge"><title>7&#45;&gt;0</title>
<path fill="none" stroke="grey" stroke-width="2" d="M433,-71.6966C421.791,-62.8807 407.998,-52.0321 395.846,-42.4742"/>
<polygon fill="grey" stroke="grey" stroke-width="2" points="397.771,-39.5354 387.747,-36.1043 393.443,-45.0375 397.771,-39.5354"/>
</g>
<!-- 8 -->
<g id="node9" class="node"><title>8</title>
<path fill="none" stroke="#d6d856" stroke-width="2" stroke-dasharray="5,2" d="M720,-108C720,-108 690,-108 690,-108 684,-108 678,-102 678,-96 678,-96 678,-84 678,-84 678,-78 684,-72 690,-72 690,-72 720,-72 720,-72 726,-72 732,-78 732,-84 732,-84 732,-96 732,-96 732,-102 726,-108 720,-108"/>
<text text-anchor="middle" x="705" y="-87.5" font-family="sans" font-size="10.00">pca</text>
</g>
<!-- 8&#45;&gt;0 -->
<g id="edge8" class="edge"><title>8&#45;&gt;0</title>
<path fill="none" stroke="grey" stroke-width="2" d="M677.789,-75.2258C674.865,-74.0252 671.899,-72.9196 669,-72 576.034,-42.51 461.501,-28.1224 403.488,-22.2978"/>
<polygon fill="grey" stroke="grey" stroke-width="2" points="403.624,-18.7945 393.332,-21.3082 402.945,-25.7616 403.624,-18.7945"/>
</g>
<!-- 9 -->
<g id="node10" class="node"><title>9</title>
<path fill="none" stroke="#d6d856" stroke-width="2" stroke-dasharray="5,2" d="M220,-108C220,-108 190,-108 190,-108 184,-108 178,-102 178,-96 178,-96 178,-84 178,-84 178,-78 184,-72 190,-72 190,-72 220,-72 220,-72 226,-72 232,-78 232,-84 232,-84 232,-96 232,-96 232,-102 226,-108 220,-108"/>
<text text-anchor="middle" x="205" y="-87.5" font-family="sans" font-size="10.00">pca</text>
</g>
<!-- 9&#45;&gt;0 -->
<g id="edge9" class="edge"><title>9&#45;&gt;0</title>
<path fill="none" stroke="grey" stroke-width="2" d="M232.073,-76.0731C235.077,-74.6811 238.098,-73.2996 241,-72 270.437,-58.8155 304.118,-44.5832 329.096,-34.1901"/>
<polygon fill="grey" stroke="grey" stroke-width="2" points="330.658,-37.3314 338.553,-30.2657 327.975,-30.866 330.658,-37.3314"/>
</g>
<!-- 10 -->
<g id="node11" class="node"><title>10</title>
<path fill="none" stroke="#97d856" stroke-width="2" stroke-dasharray="5,2" d="M191.5,-180C191.5,-180 130.5,-180 130.5,-180 124.5,-180 118.5,-174 118.5,-168 118.5,-168 118.5,-156 118.5,-156 118.5,-150 124.5,-144 130.5,-144 130.5,-144 191.5,-144 191.5,-144 197.5,-144 203.5,-150 203.5,-156 203.5,-156 203.5,-168 203.5,-168 203.5,-174 197.5,-180 191.5,-180"/>
<text text-anchor="middle" x="161" y="-165" font-family="sans" font-size="10.00">simulate_data</text>
<text text-anchor="middle" x="161" y="-154" font-family="sans" font-size="10.00">loc: 1</text>
</g>
<!-- 10&#45;&gt;1 -->
<g id="edge10" class="edge"><title>10&#45;&gt;1</title>
<path fill="none" stroke="grey" stroke-width="2" d="M128.22,-143.876C108.466,-133.557 83.2865,-120.403 62.9834,-109.797"/>
<polygon fill="grey" stroke="grey" stroke-width="2" points="64.5191,-106.651 54.035,-105.123 61.2779,-112.855 64.5191,-106.651"/>
</g>
<!-- 10&#45;&gt;3 -->
<g id="edge12" class="edge"><title>10&#45;&gt;3</title>
<path fill="none" stroke="grey" stroke-width="2" d="M149.876,-143.697C144.645,-135.559 138.3,-125.689 132.522,-116.701"/>
<polygon fill="grey" stroke="grey" stroke-width="2" points="135.347,-114.623 126.996,-108.104 129.459,-118.409 135.347,-114.623"/>
</g>
<!-- 10&#45;&gt;9 -->
<g id="edge18" class="edge"><title>10&#45;&gt;9</title>
<path fill="none" stroke="grey" stroke-width="2" d="M171.876,-143.697C176.992,-135.559 183.195,-125.689 188.845,-116.701"/>
<polygon fill="grey" stroke="grey" stroke-width="2" points="191.89,-118.433 194.249,-108.104 185.964,-114.708 191.89,-118.433"/>
</g>
<!-- 11 -->
<g id="node12" class="node"><title>11</title>
<path fill="none" stroke="#97d856" stroke-width="2" stroke-dasharray="5,2" d="M396.5,-180C396.5,-180 335.5,-180 335.5,-180 329.5,-180 323.5,-174 323.5,-168 323.5,-168 323.5,-156 323.5,-156 323.5,-150 329.5,-144 335.5,-144 335.5,-144 396.5,-144 396.5,-144 402.5,-144 408.5,-150 408.5,-156 408.5,-156 408.5,-168 408.5,-168 408.5,-174 402.5,-180 396.5,-180"/>
<text text-anchor="middle" x="366" y="-165" font-family="sans" font-size="10.00">simulate_data</text>
<text text-anchor="middle" x="366" y="-154" font-family="sans" font-size="10.00">loc: 0.5</text>
</g>
<!-- 11&#45;&gt;2 -->
<g id="edge11" class="edge"><title>11&#45;&gt;2</title>
<path fill="none" stroke="grey" stroke-width="2" d="M344,-143.697C332.791,-134.881 318.998,-124.032 306.846,-114.474"/>
<polygon fill="grey" stroke="grey" stroke-width="2" points="308.771,-111.535 298.747,-108.104 304.443,-117.038 308.771,-111.535"/>
</g>
<!-- 11&#45;&gt;4 -->
<g id="edge13" class="edge"><title>11&#45;&gt;4</title>
<path fill="none" stroke="grey" stroke-width="2" d="M366,-143.697C366,-135.983 366,-126.712 366,-118.112"/>
<polygon fill="grey" stroke="grey" stroke-width="2" points="369.5,-118.104 366,-108.104 362.5,-118.104 369.5,-118.104"/>
</g>
<!-- 11&#45;&gt;7 -->
<g id="edge16" class="edge"><title>11&#45;&gt;7</title>
<path fill="none" stroke="grey" stroke-width="2" d="M388,-143.697C399.209,-134.881 413.002,-124.032 425.154,-114.474"/>
<polygon fill="grey" stroke="grey" stroke-width="2" points="427.557,-117.038 433.253,-108.104 423.229,-111.535 427.557,-117.038"/>
</g>
<!-- 12 -->
<g id="node13" class="node"><title>12</title>
<path fill="none" stroke="#97d856" stroke-width="2" stroke-dasharray="5,2" d="M601.5,-180C601.5,-180 540.5,-180 540.5,-180 534.5,-180 528.5,-174 528.5,-168 528.5,-168 528.5,-156 528.5,-156 528.5,-150 534.5,-144 540.5,-144 540.5,-144 601.5,-144 601.5,-144 607.5,-144 613.5,-150 613.5,-156 613.5,-156 613.5,-168 613.5,-168 613.5,-174 607.5,-180 601.5,-180"/>
<text text-anchor="middle" x="571" y="-165" font-family="sans" font-size="10.00">simulate_data</text>
<text text-anchor="middle" x="571" y="-154" font-family="sans" font-size="10.00">loc: 1.5</text>
</g>
<!-- 12&#45;&gt;5 -->
<g id="edge14" class="edge"><title>12&#45;&gt;5</title>
<path fill="none" stroke="grey" stroke-width="2" d="M560.124,-143.697C555.008,-135.559 548.805,-125.689 543.155,-116.701"/>
<polygon fill="grey" stroke="grey" stroke-width="2" points="546.036,-114.708 537.751,-108.104 540.11,-118.433 546.036,-114.708"/>
</g>
<!-- 12&#45;&gt;6 -->
<g id="edge15" class="edge"><title>12&#45;&gt;6</title>
<path fill="none" stroke="grey" stroke-width="2" d="M582.124,-143.697C587.355,-135.559 593.7,-125.689 599.478,-116.701"/>
<polygon fill="grey" stroke="grey" stroke-width="2" points="602.541,-118.409 605.004,-108.104 596.653,-114.623 602.541,-118.409"/>
</g>
<!-- 12&#45;&gt;8 -->
<g id="edge17" class="edge"><title>12&#45;&gt;8</title>
<path fill="none" stroke="grey" stroke-width="2" d="M603.78,-143.876C623.534,-133.557 648.713,-120.403 669.017,-109.797"/>
<polygon fill="grey" stroke="grey" stroke-width="2" points="670.722,-112.855 677.965,-105.123 667.481,-106.651 670.722,-112.855"/>
</g>
<!-- 13 -->
<g id="node14" class="node"><title>13</title>
<path fill="none" stroke="#56d89a" stroke-width="2" stroke-dasharray="5,2" d="M412,-252C412,-252 320,-252 320,-252 314,-252 308,-246 308,-240 308,-240 308,-228 308,-228 308,-222 314,-216 320,-216 320,-216 412,-216 412,-216 418,-216 424,-222 424,-228 424,-228 424,-240 424,-240 424,-246 418,-252 412,-252"/>
<text text-anchor="middle" x="366" y="-231.5" font-family="sans" font-size="10.00">preprocess_zheng17</text>
</g>
<!-- 13&#45;&gt;10 -->
<g id="edge19" class="edge"><title>13&#45;&gt;10</title>
<path fill="none" stroke="grey" stroke-width="2" d="M316.113,-215.966C284.966,-205.33 244.925,-191.657 213.328,-180.868"/>
<polygon fill="grey" stroke="grey" stroke-width="2" points="214.406,-177.538 203.812,-177.619 212.144,-184.162 214.406,-177.538"/>
</g>
<!-- 13&#45;&gt;11 -->
<g id="edge20" class="edge"><title>13&#45;&gt;11</title>
<path fill="none" stroke="grey" stroke-width="2" d="M366,-215.697C366,-207.983 366,-198.712 366,-190.112"/>
<polygon fill="grey" stroke="grey" stroke-width="2" points="369.5,-190.104 366,-180.104 362.5,-190.104 369.5,-190.104"/>
</g>
<!-- 13&#45;&gt;12 -->
<g id="edge21" class="edge"><title>13&#45;&gt;12</title>
<path fill="none" stroke="grey" stroke-width="2" d="M415.887,-215.966C447.034,-205.33 487.075,-191.657 518.672,-180.868"/>
<polygon fill="grey" stroke="grey" stroke-width="2" points="519.856,-184.162 528.188,-177.619 517.594,-177.538 519.856,-184.162"/>
</g>
<!-- 14 -->
<g id="node15" class="node"><title>14</title>
<path fill="none" stroke="#59d856" stroke-width="2" stroke-dasharray="5,2" d="M392.5,-324C392.5,-324 339.5,-324 339.5,-324 333.5,-324 327.5,-318 327.5,-312 327.5,-312 327.5,-300 327.5,-300 327.5,-294 333.5,-288 339.5,-288 339.5,-288 392.5,-288 392.5,-288 398.5,-288 404.5,-294 404.5,-300 404.5,-300 404.5,-312 404.5,-312 404.5,-318 398.5,-324 392.5,-324"/>
<text text-anchor="middle" x="366" y="-303.5" font-family="sans" font-size="10.00">create_loom</text>
</g>
<!-- 14&#45;&gt;13 -->
<g id="edge22" class="edge"><title>14&#45;&gt;13</title>
<path fill="none" stroke="grey" stroke-width="2" d="M366,-287.697C366,-279.983 366,-270.712 366,-262.112"/>
<polygon fill="grey" stroke="grey" stroke-width="2" points="369.5,-262.104 366,-252.104 362.5,-262.104 369.5,-262.104"/>
</g>
</g>
</svg>
