<?xml version="1.0" encoding="UTF-8" standalone="no"?>
<!DOCTYPE svg PUBLIC "-//W3C//DTD SVG 1.1//EN"
 "http://www.w3.org/Graphics/SVG/1.1/DTD/svg11.dtd">
<!-- Generated by graphviz version 2.38.0 (20140413.2041)
 -->
<!-- Title: snakemake_dag Pages: 1 -->
<svg width="2890pt" height="404pt"
 viewBox="0.00 0.00 2889.50 404.00" xmlns="http://www.w3.org/2000/svg" xmlns:xlink="http://www.w3.org/1999/xlink">
<g id="graph0" class="graph" transform="scale(1 1) rotate(0) translate(4 400)">
<title>snakemake_dag</title>
<polygon fill="white" stroke="none" points="-4,4 -4,-400 2885.5,-400 2885.5,4 -4,4"/>
<!-- 0 -->
<g id="node1" class="node"><title>0</title>
<path fill="none" stroke="#56d8a9" stroke-width="2" d="M1449,-36C1449,-36 1419,-36 1419,-36 1413,-36 1407,-30 1407,-24 1407,-24 1407,-12 1407,-12 1407,-6 1413,-0 1419,-0 1419,-0 1449,-0 1449,-0 1455,-0 1461,-6 1461,-12 1461,-12 1461,-24 1461,-24 1461,-30 1455,-36 1449,-36"/>
<text text-anchor="middle" x="1434" y="-15.5" font-family="sans" font-size="10.00">all</text>
</g>
<!-- 1 -->
<g id="node2" class="node"><title>1</title>
<path fill="none" stroke="#56c9d8" stroke-width="2" stroke-dasharray="5,2" d="M74,-108C74,-108 12,-108 12,-108 6,-108 0,-102 0,-96 0,-96 0,-84 0,-84 0,-78 6,-72 12,-72 12,-72 74,-72 74,-72 80,-72 86,-78 86,-84 86,-84 86,-96 86,-96 86,-102 80,-108 74,-108"/>
<text text-anchor="middle" x="43" y="-93" font-family="sans" font-size="10.00">cluster_results</text>
<text text-anchor="middle" x="43" y="-82" font-family="sans" font-size="10.00">method: pca</text>
</g>
<!-- 1&#45;&gt;0 -->
<g id="edge1" class="edge"><title>1&#45;&gt;0</title>
<path fill="none" stroke="grey" stroke-width="2" d="M86.1813,-73.8941C89.1434,-73.1645 92.102,-72.5207 95,-72 354.998,-25.2881 1207.39,-19.7443 1396.58,-19.0879"/>
<polygon fill="grey" stroke="grey" stroke-width="2" points="1396.85,-22.5872 1406.84,-19.0549 1396.83,-15.5872 1396.85,-22.5872"/>
</g>
<!-- 2 -->
<g id="node3" class="node"><title>2</title>
<path fill="none" stroke="#56c9d8" stroke-width="2" stroke-dasharray="5,2" d="M578.5,-108C578.5,-108 495.5,-108 495.5,-108 489.5,-108 483.5,-102 483.5,-96 483.5,-96 483.5,-84 483.5,-84 483.5,-78 489.5,-72 495.5,-72 495.5,-72 578.5,-72 578.5,-72 584.5,-72 590.5,-78 590.5,-84 590.5,-84 590.5,-96 590.5,-96 590.5,-102 584.5,-108 578.5,-108"/>
<text text-anchor="middle" x="537" y="-93" font-family="sans" font-size="10.00">cluster_results</text>
<text text-anchor="middle" x="537" y="-82" font-family="sans" font-size="10.00">method: block_zifa</text>
</g>
<!-- 2&#45;&gt;0 -->
<g id="edge2" class="edge"><title>2&#45;&gt;0</title>
<path fill="none" stroke="grey" stroke-width="2" d="M590.801,-73.7227C593.9,-73.0799 596.982,-72.4979 600,-72 904.352,-21.786 1278.42,-18.422 1396.48,-18.724"/>
<polygon fill="grey" stroke="grey" stroke-width="2" points="1396.76,-22.225 1406.78,-18.7617 1396.79,-15.2251 1396.76,-22.225"/>
</g>
<!-- 3 -->
<g id="node4" class="node"><title>3</title>
<path fill="none" stroke="#56c9d8" stroke-width="2" stroke-dasharray="5,2" d="M1041,-108C1041,-108 979,-108 979,-108 973,-108 967,-102 967,-96 967,-96 967,-84 967,-84 967,-78 973,-72 979,-72 979,-72 1041,-72 1041,-72 1047,-72 1053,-78 1053,-84 1053,-84 1053,-96 1053,-96 1053,-102 1047,-108 1041,-108"/>
<text text-anchor="middle" x="1010" y="-93" font-family="sans" font-size="10.00">cluster_results</text>
<text text-anchor="middle" x="1010" y="-82" font-family="sans" font-size="10.00">method: pca</text>
</g>
<!-- 3&#45;&gt;0 -->
<g id="edge3" class="edge"><title>3&#45;&gt;0</title>
<path fill="none" stroke="grey" stroke-width="2" d="M1053.25,-74.2347C1056.2,-73.4229 1059.13,-72.6677 1062,-72 1182.62,-43.9173 1328.92,-28.3389 1396.48,-22.1628"/>
<polygon fill="grey" stroke="grey" stroke-width="2" points="1396.98,-25.6317 1406.63,-21.2518 1396.35,-18.6597 1396.98,-25.6317"/>
</g>
<!-- 4 -->
<g id="node5" class="node"><title>4</title>
<path fill="none" stroke="#56c9d8" stroke-width="2" stroke-dasharray="5,2" d="M1145,-108C1145,-108 1083,-108 1083,-108 1077,-108 1071,-102 1071,-96 1071,-96 1071,-84 1071,-84 1071,-78 1077,-72 1083,-72 1083,-72 1145,-72 1145,-72 1151,-72 1157,-78 1157,-84 1157,-84 1157,-96 1157,-96 1157,-102 1151,-108 1145,-108"/>
<text text-anchor="middle" x="1114" y="-93" font-family="sans" font-size="10.00">cluster_results</text>
<text text-anchor="middle" x="1114" y="-82" font-family="sans" font-size="10.00">method: tsne</text>
</g>
<!-- 4&#45;&gt;0 -->
<g id="edge4" class="edge"><title>4&#45;&gt;0</title>
<path fill="none" stroke="grey" stroke-width="2" d="M1157.01,-74.4955C1160.04,-73.6104 1163.06,-72.7684 1166,-72 1247.35,-50.7407 1344.56,-33.5083 1396.64,-24.9211"/>
<polygon fill="grey" stroke="grey" stroke-width="2" points="1397.44,-28.3373 1406.75,-23.2709 1396.31,-21.4288 1397.44,-28.3373"/>
</g>
<!-- 5 -->
<g id="node6" class="node"><title>5</title>
<path fill="none" stroke="#56c9d8" stroke-width="2" stroke-dasharray="5,2" d="M1544.5,-108C1544.5,-108 1461.5,-108 1461.5,-108 1455.5,-108 1449.5,-102 1449.5,-96 1449.5,-96 1449.5,-84 1449.5,-84 1449.5,-78 1455.5,-72 1461.5,-72 1461.5,-72 1544.5,-72 1544.5,-72 1550.5,-72 1556.5,-78 1556.5,-84 1556.5,-84 1556.5,-96 1556.5,-96 1556.5,-102 1550.5,-108 1544.5,-108"/>
<text text-anchor="middle" x="1503" y="-93" font-family="sans" font-size="10.00">cluster_results</text>
<text text-anchor="middle" x="1503" y="-82" font-family="sans" font-size="10.00">method: block_zifa</text>
</g>
<!-- 5&#45;&gt;0 -->
<g id="edge5" class="edge"><title>5&#45;&gt;0</title>
<path fill="none" stroke="grey" stroke-width="2" d="M1485.94,-71.6966C1477.5,-63.135 1467.18,-52.6562 1457.96,-43.3045"/>
<polygon fill="grey" stroke="grey" stroke-width="2" points="1460.37,-40.7691 1450.86,-36.1043 1455.39,-45.6831 1460.37,-40.7691"/>
</g>
<!-- 6 -->
<g id="node7" class="node"><title>6</title>
<path fill="none" stroke="#56c9d8" stroke-width="2" stroke-dasharray="5,2" d="M683,-108C683,-108 621,-108 621,-108 615,-108 609,-102 609,-96 609,-96 609,-84 609,-84 609,-78 615,-72 621,-72 621,-72 683,-72 683,-72 689,-72 695,-78 695,-84 695,-84 695,-96 695,-96 695,-102 689,-108 683,-108"/>
<text text-anchor="middle" x="652" y="-93" font-family="sans" font-size="10.00">cluster_results</text>
<text text-anchor="middle" x="652" y="-82" font-family="sans" font-size="10.00">method: pca</text>
</g>
<!-- 6&#45;&gt;0 -->
<g id="edge6" class="edge"><title>6&#45;&gt;0</title>
<path fill="none" stroke="grey" stroke-width="2" d="M695.202,-74.0044C698.159,-73.2482 701.111,-72.5683 704,-72 965.536,-20.5552 1288.6,-17.833 1396.76,-18.5277"/>
<polygon fill="grey" stroke="grey" stroke-width="2" points="1396.81,-22.0282 1406.84,-18.6068 1396.87,-15.0284 1396.81,-22.0282"/>
</g>
<!-- 7 -->
<g id="node8" class="node"><title>7</title>
<path fill="none" stroke="#56c9d8" stroke-width="2" stroke-dasharray="5,2" d="M1270.5,-108C1270.5,-108 1187.5,-108 1187.5,-108 1181.5,-108 1175.5,-102 1175.5,-96 1175.5,-96 1175.5,-84 1175.5,-84 1175.5,-78 1181.5,-72 1187.5,-72 1187.5,-72 1270.5,-72 1270.5,-72 1276.5,-72 1282.5,-78 1282.5,-84 1282.5,-84 1282.5,-96 1282.5,-96 1282.5,-102 1276.5,-108 1270.5,-108"/>
<text text-anchor="middle" x="1229" y="-93" font-family="sans" font-size="10.00">cluster_results</text>
<text text-anchor="middle" x="1229" y="-82" font-family="sans" font-size="10.00">method: block_zifa</text>
</g>
<!-- 7&#45;&gt;0 -->
<g id="edge7" class="edge"><title>7&#45;&gt;0</title>
<path fill="none" stroke="grey" stroke-width="2" d="M1278.89,-71.9656C1315.4,-59.496 1364.15,-42.8524 1397.17,-31.5748"/>
<polygon fill="grey" stroke="grey" stroke-width="2" points="1398.56,-34.8014 1406.89,-28.2576 1396.29,-28.1769 1398.56,-34.8014"/>
</g>
<!-- 8 -->
<g id="node9" class="node"><title>8</title>
<path fill="none" stroke="#56c9d8" stroke-width="2" stroke-dasharray="5,2" d="M2007,-108C2007,-108 1945,-108 1945,-108 1939,-108 1933,-102 1933,-96 1933,-96 1933,-84 1933,-84 1933,-78 1939,-72 1945,-72 1945,-72 2007,-72 2007,-72 2013,-72 2019,-78 2019,-84 2019,-84 2019,-96 2019,-96 2019,-102 2013,-108 2007,-108"/>
<text text-anchor="middle" x="1976" y="-93" font-family="sans" font-size="10.00">cluster_results</text>
<text text-anchor="middle" x="1976" y="-82" font-family="sans" font-size="10.00">method: pca</text>
</g>
<!-- 8&#45;&gt;0 -->
<g id="edge8" class="edge"><title>8&#45;&gt;0</title>
<path fill="none" stroke="grey" stroke-width="2" d="M1932.77,-74.1223C1929.82,-73.3376 1926.88,-72.6191 1924,-72 1757.51,-36.1904 1553.73,-24.0265 1471.27,-20.3859"/>
<polygon fill="grey" stroke="grey" stroke-width="2" points="1471.28,-16.8832 1461.14,-19.955 1470.98,-23.8769 1471.28,-16.8832"/>
</g>
<!-- 9 -->
<g id="node10" class="node"><title>9</title>
<path fill="none" stroke="#56c9d8" stroke-width="2" stroke-dasharray="5,2" d="M2156.5,-108C2156.5,-108 2049.5,-108 2049.5,-108 2043.5,-108 2037.5,-102 2037.5,-96 2037.5,-96 2037.5,-84 2037.5,-84 2037.5,-78 2043.5,-72 2049.5,-72 2049.5,-72 2156.5,-72 2156.5,-72 2162.5,-72 2168.5,-78 2168.5,-84 2168.5,-84 2168.5,-96 2168.5,-96 2168.5,-102 2162.5,-108 2156.5,-108"/>
<text text-anchor="middle" x="2103" y="-93" font-family="sans" font-size="10.00">cluster_results</text>
<text text-anchor="middle" x="2103" y="-82" font-family="sans" font-size="10.00">method: factor_analysis</text>
</g>
<!-- 9&#45;&gt;0 -->
<g id="edge9" class="edge"><title>9&#45;&gt;0</title>
<path fill="none" stroke="grey" stroke-width="2" d="M2037.25,-73.5723C2034.13,-73.0054 2031.03,-72.4769 2028,-72 1818.97,-39.136 1565.11,-24.966 1471.23,-20.5874"/>
<polygon fill="grey" stroke="grey" stroke-width="2" points="1471.24,-17.0847 1461.1,-20.1242 1470.92,-24.0774 1471.24,-17.0847"/>
</g>
<!-- 10 -->
<g id="node11" class="node"><title>10</title>
<path fill="none" stroke="#56c9d8" stroke-width="2" stroke-dasharray="5,2" d="M2511.5,-108C2511.5,-108 2428.5,-108 2428.5,-108 2422.5,-108 2416.5,-102 2416.5,-96 2416.5,-96 2416.5,-84 2416.5,-84 2416.5,-78 2422.5,-72 2428.5,-72 2428.5,-72 2511.5,-72 2511.5,-72 2517.5,-72 2523.5,-78 2523.5,-84 2523.5,-84 2523.5,-96 2523.5,-96 2523.5,-102 2517.5,-108 2511.5,-108"/>
<text text-anchor="middle" x="2470" y="-93" font-family="sans" font-size="10.00">cluster_results</text>
<text text-anchor="middle" x="2470" y="-82" font-family="sans" font-size="10.00">method: block_zifa</text>
</g>
<!-- 10&#45;&gt;0 -->
<g id="edge10" class="edge"><title>10&#45;&gt;0</title>
<path fill="none" stroke="grey" stroke-width="2" d="M2416.2,-73.6899C2413.1,-73.0555 2410.02,-72.4843 2407,-72 2221.85,-42.3128 1627.76,-24.2982 1471.79,-20.0016"/>
<polygon fill="grey" stroke="grey" stroke-width="2" points="1471.42,-16.4903 1461.33,-19.716 1471.23,-23.4877 1471.42,-16.4903"/>
</g>
<!-- 11 -->
<g id="node12" class="node"><title>11</title>
<path fill="none" stroke="#56c9d8" stroke-width="2" stroke-dasharray="5,2" d="M787,-108C787,-108 725,-108 725,-108 719,-108 713,-102 713,-96 713,-96 713,-84 713,-84 713,-78 719,-72 725,-72 725,-72 787,-72 787,-72 793,-72 799,-78 799,-84 799,-84 799,-96 799,-96 799,-102 793,-108 787,-108"/>
<text text-anchor="middle" x="756" y="-93" font-family="sans" font-size="10.00">cluster_results</text>
<text text-anchor="middle" x="756" y="-82" font-family="sans" font-size="10.00">method: tsne</text>
</g>
<!-- 11&#45;&gt;0 -->
<g id="edge11" class="edge"><title>11&#45;&gt;0</title>
<path fill="none" stroke="grey" stroke-width="2" d="M799.21,-74.0445C802.165,-73.2786 805.114,-72.5856 808,-72 1027.97,-27.3612 1298.8,-20.2409 1396.58,-19.1651"/>
<polygon fill="grey" stroke="grey" stroke-width="2" points="1396.87,-22.6626 1406.84,-19.068 1396.81,-15.6629 1396.87,-22.6626"/>
</g>
<!-- 12 -->
<g id="node13" class="node"><title>12</title>
<path fill="none" stroke="#56c9d8" stroke-width="2" stroke-dasharray="5,2" d="M2261,-108C2261,-108 2199,-108 2199,-108 2193,-108 2187,-102 2187,-96 2187,-96 2187,-84 2187,-84 2187,-78 2193,-72 2199,-72 2199,-72 2261,-72 2261,-72 2267,-72 2273,-78 2273,-84 2273,-84 2273,-96 2273,-96 2273,-102 2267,-108 2261,-108"/>
<text text-anchor="middle" x="2230" y="-93" font-family="sans" font-size="10.00">cluster_results</text>
<text text-anchor="middle" x="2230" y="-82" font-family="sans" font-size="10.00">method: tsne</text>
</g>
<!-- 12&#45;&gt;0 -->
<g id="edge12" class="edge"><title>12&#45;&gt;0</title>
<path fill="none" stroke="grey" stroke-width="2" d="M2186.83,-74.2256C2183.53,-73.3805 2180.23,-72.6231 2177,-72 1910.35,-20.496 1581.18,-17.8268 1471.51,-18.5302"/>
<polygon fill="grey" stroke="grey" stroke-width="2" points="1471.27,-15.0319 1461.29,-18.61 1471.32,-22.0316 1471.27,-15.0319"/>
</g>
<!-- 13 -->
<g id="node14" class="node"><title>13</title>
<path fill="none" stroke="#56c9d8" stroke-width="2" stroke-dasharray="5,2" d="M1649,-108C1649,-108 1587,-108 1587,-108 1581,-108 1575,-102 1575,-96 1575,-96 1575,-84 1575,-84 1575,-78 1581,-72 1587,-72 1587,-72 1649,-72 1649,-72 1655,-72 1661,-78 1661,-84 1661,-84 1661,-96 1661,-96 1661,-102 1655,-108 1649,-108"/>
<text text-anchor="middle" x="1618" y="-93" font-family="sans" font-size="10.00">cluster_results</text>
<text text-anchor="middle" x="1618" y="-82" font-family="sans" font-size="10.00">method: pca</text>
</g>
<!-- 13&#45;&gt;0 -->
<g id="edge13" class="edge"><title>13&#45;&gt;0</title>
<path fill="none" stroke="grey" stroke-width="2" d="M1574.86,-72.5881C1543.27,-60.5709 1500.86,-44.4351 1470.85,-33.0192"/>
<polygon fill="grey" stroke="grey" stroke-width="2" points="1471.77,-29.6259 1461.18,-29.3414 1469.29,-36.1685 1471.77,-29.6259"/>
</g>
<!-- 14 -->
<g id="node15" class="node"><title>14</title>
<path fill="none" stroke="#56c9d8" stroke-width="2" stroke-dasharray="5,2" d="M936.5,-108C936.5,-108 829.5,-108 829.5,-108 823.5,-108 817.5,-102 817.5,-96 817.5,-96 817.5,-84 817.5,-84 817.5,-78 823.5,-72 829.5,-72 829.5,-72 936.5,-72 936.5,-72 942.5,-72 948.5,-78 948.5,-84 948.5,-84 948.5,-96 948.5,-96 948.5,-102 942.5,-108 936.5,-108"/>
<text text-anchor="middle" x="883" y="-93" font-family="sans" font-size="10.00">cluster_results</text>
<text text-anchor="middle" x="883" y="-82" font-family="sans" font-size="10.00">method: factor_analysis</text>
</g>
<!-- 14&#45;&gt;0 -->
<g id="edge14" class="edge"><title>14&#45;&gt;0</title>
<path fill="none" stroke="grey" stroke-width="2" d="M948.767,-73.6547C951.883,-73.0658 954.972,-72.5101 958,-72 1120.24,-44.6691 1316.05,-27.925 1396.61,-21.7298"/>
<polygon fill="grey" stroke="grey" stroke-width="2" points="1397.04,-25.2069 1406.75,-20.9591 1396.51,-18.2271 1397.04,-25.2069"/>
</g>
<!-- 15 -->
<g id="node16" class="node"><title>15</title>
<path fill="none" stroke="#56c9d8" stroke-width="2" stroke-dasharray="5,2" d="M199.5,-108C199.5,-108 116.5,-108 116.5,-108 110.5,-108 104.5,-102 104.5,-96 104.5,-96 104.5,-84 104.5,-84 104.5,-78 110.5,-72 116.5,-72 116.5,-72 199.5,-72 199.5,-72 205.5,-72 211.5,-78 211.5,-84 211.5,-84 211.5,-96 211.5,-96 211.5,-102 205.5,-108 199.5,-108"/>
<text text-anchor="middle" x="158" y="-93" font-family="sans" font-size="10.00">cluster_results</text>
<text text-anchor="middle" x="158" y="-82" font-family="sans" font-size="10.00">method: block_zifa</text>
</g>
<!-- 15&#45;&gt;0 -->
<g id="edge15" class="edge"><title>15&#45;&gt;0</title>
<path fill="none" stroke="grey" stroke-width="2" d="M211.608,-73.5111C214.434,-72.9426 217.243,-72.4325 220,-72 455.135,-35.1094 1218.9,-22.0755 1396.75,-19.5029"/>
<polygon fill="grey" stroke="grey" stroke-width="2" points="1396.96,-23.0004 1406.91,-19.3582 1396.86,-16.0011 1396.96,-23.0004"/>
</g>
<!-- 16 -->
<g id="node17" class="node"><title>16</title>
<path fill="none" stroke="#56c9d8" stroke-width="2" stroke-dasharray="5,2" d="M348.5,-108C348.5,-108 241.5,-108 241.5,-108 235.5,-108 229.5,-102 229.5,-96 229.5,-96 229.5,-84 229.5,-84 229.5,-78 235.5,-72 241.5,-72 241.5,-72 348.5,-72 348.5,-72 354.5,-72 360.5,-78 360.5,-84 360.5,-84 360.5,-96 360.5,-96 360.5,-102 354.5,-108 348.5,-108"/>
<text text-anchor="middle" x="295" y="-93" font-family="sans" font-size="10.00">cluster_results</text>
<text text-anchor="middle" x="295" y="-82" font-family="sans" font-size="10.00">method: factor_analysis</text>
</g>
<!-- 16&#45;&gt;0 -->
<g id="edge16" class="edge"><title>16&#45;&gt;0</title>
<path fill="none" stroke="grey" stroke-width="2" d="M360.732,-73.4242C363.857,-72.8969 366.958,-72.4174 370,-72 769.132,-17.2444 1259.37,-17.2979 1396.7,-18.5314"/>
<polygon fill="grey" stroke="grey" stroke-width="2" points="1396.68,-22.0312 1406.71,-18.6293 1396.74,-15.0315 1396.68,-22.0312"/>
</g>
<!-- 17 -->
<g id="node18" class="node"><title>17</title>
<path fill="none" stroke="#56c9d8" stroke-width="2" stroke-dasharray="5,2" d="M2616,-108C2616,-108 2554,-108 2554,-108 2548,-108 2542,-102 2542,-96 2542,-96 2542,-84 2542,-84 2542,-78 2548,-72 2554,-72 2554,-72 2616,-72 2616,-72 2622,-72 2628,-78 2628,-84 2628,-84 2628,-96 2628,-96 2628,-102 2622,-108 2616,-108"/>
<text text-anchor="middle" x="2585" y="-93" font-family="sans" font-size="10.00">cluster_results</text>
<text text-anchor="middle" x="2585" y="-82" font-family="sans" font-size="10.00">method: pca</text>
</g>
<!-- 17&#45;&gt;0 -->
<g id="edge17" class="edge"><title>17&#45;&gt;0</title>
<path fill="none" stroke="grey" stroke-width="2" d="M2541.85,-74.1419C2538.54,-73.3161 2535.23,-72.586 2532,-72 2321.73,-33.8868 1639.09,-21.897 1471.44,-19.4921"/>
<polygon fill="grey" stroke="grey" stroke-width="2" points="1471.42,-15.9916 1461.37,-19.3504 1471.32,-22.9909 1471.42,-15.9916"/>
</g>
<!-- 18 -->
<g id="node19" class="node"><title>18</title>
<path fill="none" stroke="#56c9d8" stroke-width="2" stroke-dasharray="5,2" d="M453,-108C453,-108 391,-108 391,-108 385,-108 379,-102 379,-96 379,-96 379,-84 379,-84 379,-78 385,-72 391,-72 391,-72 453,-72 453,-72 459,-72 465,-78 465,-84 465,-84 465,-96 465,-96 465,-102 459,-108 453,-108"/>
<text text-anchor="middle" x="422" y="-93" font-family="sans" font-size="10.00">cluster_results</text>
<text text-anchor="middle" x="422" y="-82" font-family="sans" font-size="10.00">method: tsne</text>
</g>
<!-- 18&#45;&gt;0 -->
<g id="edge18" class="edge"><title>18&#45;&gt;0</title>
<path fill="none" stroke="grey" stroke-width="2" d="M465.191,-73.9464C468.151,-73.2042 471.106,-72.5432 474,-72 655.638,-37.9028 1241.32,-23.1382 1396.16,-19.7729"/>
<polygon fill="grey" stroke="grey" stroke-width="2" points="1396.63,-23.2637 1406.55,-19.5502 1396.48,-16.2653 1396.63,-23.2637"/>
</g>
<!-- 19 -->
<g id="node20" class="node"><title>19</title>
<path fill="none" stroke="#56c9d8" stroke-width="2" stroke-dasharray="5,2" d="M2720,-108C2720,-108 2658,-108 2658,-108 2652,-108 2646,-102 2646,-96 2646,-96 2646,-84 2646,-84 2646,-78 2652,-72 2658,-72 2658,-72 2720,-72 2720,-72 2726,-72 2732,-78 2732,-84 2732,-84 2732,-96 2732,-96 2732,-102 2726,-108 2720,-108"/>
<text text-anchor="middle" x="2689" y="-93" font-family="sans" font-size="10.00">cluster_results</text>
<text text-anchor="middle" x="2689" y="-82" font-family="sans" font-size="10.00">method: tsne</text>
</g>
<!-- 19&#45;&gt;0 -->
<g id="edge19" class="edge"><title>19&#45;&gt;0</title>
<path fill="none" stroke="grey" stroke-width="2" d="M2645.82,-73.9091C2642.85,-73.1759 2639.9,-72.5271 2637,-72 2405.08,-29.7975 1648.2,-20.8199 1471.24,-19.2803"/>
<polygon fill="grey" stroke="grey" stroke-width="2" points="1471.16,-15.7796 1461.13,-19.195 1471.1,-22.7794 1471.16,-15.7796"/>
</g>
<!-- 20 -->
<g id="node21" class="node"><title>20</title>
<path fill="none" stroke="#56c9d8" stroke-width="2" stroke-dasharray="5,2" d="M1419.5,-108C1419.5,-108 1312.5,-108 1312.5,-108 1306.5,-108 1300.5,-102 1300.5,-96 1300.5,-96 1300.5,-84 1300.5,-84 1300.5,-78 1306.5,-72 1312.5,-72 1312.5,-72 1419.5,-72 1419.5,-72 1425.5,-72 1431.5,-78 1431.5,-84 1431.5,-84 1431.5,-96 1431.5,-96 1431.5,-102 1425.5,-108 1419.5,-108"/>
<text text-anchor="middle" x="1366" y="-93" font-family="sans" font-size="10.00">cluster_results</text>
<text text-anchor="middle" x="1366" y="-82" font-family="sans" font-size="10.00">method: factor_analysis</text>
</g>
<!-- 20&#45;&gt;0 -->
<g id="edge20" class="edge"><title>20&#45;&gt;0</title>
<path fill="none" stroke="grey" stroke-width="2" d="M1382.81,-71.6966C1391.13,-63.135 1401.31,-52.6562 1410.39,-43.3045"/>
<polygon fill="grey" stroke="grey" stroke-width="2" points="1412.93,-45.7159 1417.38,-36.1043 1407.91,-40.8384 1412.93,-45.7159"/>
</g>
<!-- 21 -->
<g id="node22" class="node"><title>21</title>
<path fill="none" stroke="#56c9d8" stroke-width="2" stroke-dasharray="5,2" d="M1798.5,-108C1798.5,-108 1691.5,-108 1691.5,-108 1685.5,-108 1679.5,-102 1679.5,-96 1679.5,-96 1679.5,-84 1679.5,-84 1679.5,-78 1685.5,-72 1691.5,-72 1691.5,-72 1798.5,-72 1798.5,-72 1804.5,-72 1810.5,-78 1810.5,-84 1810.5,-84 1810.5,-96 1810.5,-96 1810.5,-102 1804.5,-108 1798.5,-108"/>
<text text-anchor="middle" x="1745" y="-93" font-family="sans" font-size="10.00">cluster_results</text>
<text text-anchor="middle" x="1745" y="-82" font-family="sans" font-size="10.00">method: factor_analysis</text>
</g>
<!-- 21&#45;&gt;0 -->
<g id="edge21" class="edge"><title>21&#45;&gt;0</title>
<path fill="none" stroke="grey" stroke-width="2" d="M1679.15,-74.0666C1676.06,-73.3675 1673,-72.6758 1670,-72 1599.74,-56.1472 1517.68,-37.7443 1471.18,-27.3256"/>
<polygon fill="grey" stroke="grey" stroke-width="2" points="1471.78,-23.874 1461.26,-25.1032 1470.25,-30.7047 1471.78,-23.874"/>
</g>
<!-- 22 -->
<g id="node23" class="node"><title>22</title>
<path fill="none" stroke="#56c9d8" stroke-width="2" stroke-dasharray="5,2" d="M2869.5,-108C2869.5,-108 2762.5,-108 2762.5,-108 2756.5,-108 2750.5,-102 2750.5,-96 2750.5,-96 2750.5,-84 2750.5,-84 2750.5,-78 2756.5,-72 2762.5,-72 2762.5,-72 2869.5,-72 2869.5,-72 2875.5,-72 2881.5,-78 2881.5,-84 2881.5,-84 2881.5,-96 2881.5,-96 2881.5,-102 2875.5,-108 2869.5,-108"/>
<text text-anchor="middle" x="2816" y="-93" font-family="sans" font-size="10.00">cluster_results</text>
<text text-anchor="middle" x="2816" y="-82" font-family="sans" font-size="10.00">method: factor_analysis</text>
</g>
<!-- 22&#45;&gt;0 -->
<g id="edge22" class="edge"><title>22&#45;&gt;0</title>
<path fill="none" stroke="grey" stroke-width="2" d="M2750.27,-73.3893C2747.15,-72.8713 2744.04,-72.4033 2741,-72 2485.79,-38.1893 1657.47,-22.6959 1471.36,-19.5944"/>
<polygon fill="grey" stroke="grey" stroke-width="2" points="1471.31,-16.0932 1461.25,-19.4277 1471.19,-23.0922 1471.31,-16.0932"/>
</g>
<!-- 23 -->
<g id="node24" class="node"><title>23</title>
<path fill="none" stroke="#56c9d8" stroke-width="2" stroke-dasharray="5,2" d="M2386.5,-108C2386.5,-108 2303.5,-108 2303.5,-108 2297.5,-108 2291.5,-102 2291.5,-96 2291.5,-96 2291.5,-84 2291.5,-84 2291.5,-78 2297.5,-72 2303.5,-72 2303.5,-72 2386.5,-72 2386.5,-72 2392.5,-72 2398.5,-78 2398.5,-84 2398.5,-84 2398.5,-96 2398.5,-96 2398.5,-102 2392.5,-108 2386.5,-108"/>
<text text-anchor="middle" x="2345" y="-93" font-family="sans" font-size="10.00">cluster_results</text>
<text text-anchor="middle" x="2345" y="-82" font-family="sans" font-size="10.00">method: block_zifa</text>
</g>
<!-- 23&#45;&gt;0 -->
<g id="edge23" class="edge"><title>23&#45;&gt;0</title>
<path fill="none" stroke="grey" stroke-width="2" d="M2291.2,-73.7189C2288.1,-73.0771 2285.02,-72.4963 2282,-72 1971.87,-20.9988 1590.55,-18.1799 1471.38,-18.6687"/>
<polygon fill="grey" stroke="grey" stroke-width="2" points="1471.3,-15.169 1461.32,-18.7208 1471.33,-22.1689 1471.3,-15.169"/>
</g>
<!-- 24 -->
<g id="node25" class="node"><title>24</title>
<path fill="none" stroke="#56c9d8" stroke-width="2" stroke-dasharray="5,2" d="M1903,-108C1903,-108 1841,-108 1841,-108 1835,-108 1829,-102 1829,-96 1829,-96 1829,-84 1829,-84 1829,-78 1835,-72 1841,-72 1841,-72 1903,-72 1903,-72 1909,-72 1915,-78 1915,-84 1915,-84 1915,-96 1915,-96 1915,-102 1909,-108 1903,-108"/>
<text text-anchor="middle" x="1872" y="-93" font-family="sans" font-size="10.00">cluster_results</text>
<text text-anchor="middle" x="1872" y="-82" font-family="sans" font-size="10.00">method: tsne</text>
</g>
<!-- 24&#45;&gt;0 -->
<g id="edge24" class="edge"><title>24&#45;&gt;0</title>
<path fill="none" stroke="grey" stroke-width="2" d="M1828.78,-74.4635C1825.49,-73.5634 1822.2,-72.7285 1819,-72 1693.22,-43.3973 1540.58,-27.9565 1471.35,-21.9714"/>
<polygon fill="grey" stroke="grey" stroke-width="2" points="1471.62,-18.4821 1461.36,-21.1239 1471.03,-25.457 1471.62,-18.4821"/>
</g>
<!-- 25 -->
<g id="node26" class="node"><title>25</title>
<path fill="none" stroke="#d88d56" stroke-width="2" stroke-dasharray="5,2" d="M91,-180C91,-180 61,-180 61,-180 55,-180 49,-174 49,-168 49,-168 49,-156 49,-156 49,-150 55,-144 61,-144 61,-144 91,-144 91,-144 97,-144 103,-150 103,-156 103,-156 103,-168 103,-168 103,-174 97,-180 91,-180"/>
<text text-anchor="middle" x="76" y="-159.5" font-family="sans" font-size="10.00">pca</text>
</g>
<!-- 25&#45;&gt;1 -->
<g id="edge25" class="edge"><title>25&#45;&gt;1</title>
<path fill="none" stroke="grey" stroke-width="2" d="M67.8427,-143.697C64.0862,-135.728 59.5469,-126.1 55.3817,-117.264"/>
<polygon fill="grey" stroke="grey" stroke-width="2" points="58.4936,-115.657 51.0635,-108.104 52.1619,-118.642 58.4936,-115.657"/>
</g>
<!-- 26 -->
<g id="node27" class="node"><title>26</title>
<path fill="none" stroke="#70d856" stroke-width="2" stroke-dasharray="5,2" d="M590,-180C590,-180 560,-180 560,-180 554,-180 548,-174 548,-168 548,-168 548,-156 548,-156 548,-150 554,-144 560,-144 560,-144 590,-144 590,-144 596,-144 602,-150 602,-156 602,-156 602,-168 602,-168 602,-174 596,-180 590,-180"/>
<text text-anchor="middle" x="575" y="-159.5" font-family="sans" font-size="10.00">zifa</text>
</g>
<!-- 26&#45;&gt;2 -->
<g id="edge26" class="edge"><title>26&#45;&gt;2</title>
<path fill="none" stroke="grey" stroke-width="2" d="M565.607,-143.697C561.235,-135.644 555.943,-125.894 551.105,-116.982"/>
<polygon fill="grey" stroke="grey" stroke-width="2" points="554.132,-115.223 546.285,-108.104 547.98,-118.563 554.132,-115.223"/>
</g>
<!-- 27 -->
<g id="node28" class="node"><title>27</title>
<path fill="none" stroke="#d88d56" stroke-width="2" stroke-dasharray="5,2" d="M1051,-180C1051,-180 1021,-180 1021,-180 1015,-180 1009,-174 1009,-168 1009,-168 1009,-156 1009,-156 1009,-150 1015,-144 1021,-144 1021,-144 1051,-144 1051,-144 1057,-144 1063,-150 1063,-156 1063,-156 1063,-168 1063,-168 1063,-174 1057,-180 1051,-180"/>
<text text-anchor="middle" x="1036" y="-159.5" font-family="sans" font-size="10.00">pca</text>
</g>
<!-- 27&#45;&gt;3 -->
<g id="edge27" class="edge"><title>27&#45;&gt;3</title>
<path fill="none" stroke="grey" stroke-width="2" d="M1029.57,-143.697C1026.64,-135.813 1023.11,-126.304 1019.86,-117.546"/>
<polygon fill="grey" stroke="grey" stroke-width="2" points="1023.12,-116.26 1016.35,-108.104 1016.55,-118.697 1023.12,-116.26"/>
</g>
<!-- 28 -->
<g id="node29" class="node"><title>28</title>
<path fill="none" stroke="#afd856" stroke-width="2" stroke-dasharray="5,2" d="M1150,-180C1150,-180 1120,-180 1120,-180 1114,-180 1108,-174 1108,-168 1108,-168 1108,-156 1108,-156 1108,-150 1114,-144 1120,-144 1120,-144 1150,-144 1150,-144 1156,-144 1162,-150 1162,-156 1162,-156 1162,-168 1162,-168 1162,-174 1156,-180 1150,-180"/>
<text text-anchor="middle" x="1135" y="-159.5" font-family="sans" font-size="10.00">tsne</text>
</g>
<!-- 28&#45;&gt;4 -->
<g id="edge28" class="edge"><title>28&#45;&gt;4</title>
<path fill="none" stroke="grey" stroke-width="2" d="M1129.81,-143.697C1127.47,-135.898 1124.65,-126.509 1122.05,-117.829"/>
<polygon fill="grey" stroke="grey" stroke-width="2" points="1125.36,-116.677 1119.13,-108.104 1118.65,-118.688 1125.36,-116.677"/>
</g>
<!-- 29 -->
<g id="node30" class="node"><title>29</title>
<path fill="none" stroke="#70d856" stroke-width="2" stroke-dasharray="5,2" d="M1539,-180C1539,-180 1509,-180 1509,-180 1503,-180 1497,-174 1497,-168 1497,-168 1497,-156 1497,-156 1497,-150 1503,-144 1509,-144 1509,-144 1539,-144 1539,-144 1545,-144 1551,-150 1551,-156 1551,-156 1551,-168 1551,-168 1551,-174 1545,-180 1539,-180"/>
<text text-anchor="middle" x="1524" y="-159.5" font-family="sans" font-size="10.00">zifa</text>
</g>
<!-- 29&#45;&gt;5 -->
<g id="edge29" class="edge"><title>29&#45;&gt;5</title>
<path fill="none" stroke="grey" stroke-width="2" d="M1518.81,-143.697C1516.47,-135.898 1513.65,-126.509 1511.05,-117.829"/>
<polygon fill="grey" stroke="grey" stroke-width="2" points="1514.36,-116.677 1508.13,-108.104 1507.65,-118.688 1514.36,-116.677"/>
</g>
<!-- 30 -->
<g id="node31" class="node"><title>30</title>
<path fill="none" stroke="#d88d56" stroke-width="2" stroke-dasharray="5,2" d="M683,-180C683,-180 653,-180 653,-180 647,-180 641,-174 641,-168 641,-168 641,-156 641,-156 641,-150 647,-144 653,-144 653,-144 683,-144 683,-144 689,-144 695,-150 695,-156 695,-156 695,-168 695,-168 695,-174 689,-180 683,-180"/>
<text text-anchor="middle" x="668" y="-159.5" font-family="sans" font-size="10.00">pca</text>
</g>
<!-- 30&#45;&gt;6 -->
<g id="edge30" class="edge"><title>30&#45;&gt;6</title>
<path fill="none" stroke="grey" stroke-width="2" d="M664.045,-143.697C662.282,-135.983 660.163,-126.712 658.197,-118.112"/>
<polygon fill="grey" stroke="grey" stroke-width="2" points="661.55,-117.073 655.91,-108.104 654.726,-118.633 661.55,-117.073"/>
</g>
<!-- 31 -->
<g id="node32" class="node"><title>31</title>
<path fill="none" stroke="#70d856" stroke-width="2" stroke-dasharray="5,2" d="M1244,-180C1244,-180 1214,-180 1214,-180 1208,-180 1202,-174 1202,-168 1202,-168 1202,-156 1202,-156 1202,-150 1208,-144 1214,-144 1214,-144 1244,-144 1244,-144 1250,-144 1256,-150 1256,-156 1256,-156 1256,-168 1256,-168 1256,-174 1250,-180 1244,-180"/>
<text text-anchor="middle" x="1229" y="-159.5" font-family="sans" font-size="10.00">zifa</text>
</g>
<!-- 31&#45;&gt;7 -->
<g id="edge31" class="edge"><title>31&#45;&gt;7</title>
<path fill="none" stroke="grey" stroke-width="2" d="M1229,-143.697C1229,-135.983 1229,-126.712 1229,-118.112"/>
<polygon fill="grey" stroke="grey" stroke-width="2" points="1232.5,-118.104 1229,-108.104 1225.5,-118.104 1232.5,-118.104"/>
</g>
<!-- 32 -->
<g id="node33" class="node"><title>32</title>
<path fill="none" stroke="#d88d56" stroke-width="2" stroke-dasharray="5,2" d="M2010,-180C2010,-180 1980,-180 1980,-180 1974,-180 1968,-174 1968,-168 1968,-168 1968,-156 1968,-156 1968,-150 1974,-144 1980,-144 1980,-144 2010,-144 2010,-144 2016,-144 2022,-150 2022,-156 2022,-156 2022,-168 2022,-168 2022,-174 2016,-180 2010,-180"/>
<text text-anchor="middle" x="1995" y="-159.5" font-family="sans" font-size="10.00">pca</text>
</g>
<!-- 32&#45;&gt;8 -->
<g id="edge32" class="edge"><title>32&#45;&gt;8</title>
<path fill="none" stroke="grey" stroke-width="2" d="M1990.3,-143.697C1988.19,-135.898 1985.64,-126.509 1983.28,-117.829"/>
<polygon fill="grey" stroke="grey" stroke-width="2" points="1986.64,-116.838 1980.64,-108.104 1979.88,-118.672 1986.64,-116.838"/>
</g>
<!-- 33 -->
<g id="node34" class="node"><title>33</title>
<path fill="none" stroke="#56d873" stroke-width="2" stroke-dasharray="5,2" d="M2135,-180C2135,-180 2071,-180 2071,-180 2065,-180 2059,-174 2059,-168 2059,-168 2059,-156 2059,-156 2059,-150 2065,-144 2071,-144 2071,-144 2135,-144 2135,-144 2141,-144 2147,-150 2147,-156 2147,-156 2147,-168 2147,-168 2147,-174 2141,-180 2135,-180"/>
<text text-anchor="middle" x="2103" y="-159.5" font-family="sans" font-size="10.00">factor_analysis</text>
</g>
<!-- 33&#45;&gt;9 -->
<g id="edge33" class="edge"><title>33&#45;&gt;9</title>
<path fill="none" stroke="grey" stroke-width="2" d="M2103,-143.697C2103,-135.983 2103,-126.712 2103,-118.112"/>
<polygon fill="grey" stroke="grey" stroke-width="2" points="2106.5,-118.104 2103,-108.104 2099.5,-118.104 2106.5,-118.104"/>
</g>
<!-- 34 -->
<g id="node35" class="node"><title>34</title>
<path fill="none" stroke="#70d856" stroke-width="2" stroke-dasharray="5,2" d="M2506,-180C2506,-180 2476,-180 2476,-180 2470,-180 2464,-174 2464,-168 2464,-168 2464,-156 2464,-156 2464,-150 2470,-144 2476,-144 2476,-144 2506,-144 2506,-144 2512,-144 2518,-150 2518,-156 2518,-156 2518,-168 2518,-168 2518,-174 2512,-180 2506,-180"/>
<text text-anchor="middle" x="2491" y="-159.5" font-family="sans" font-size="10.00">zifa</text>
</g>
<!-- 34&#45;&gt;10 -->
<g id="edge34" class="edge"><title>34&#45;&gt;10</title>
<path fill="none" stroke="grey" stroke-width="2" d="M2485.81,-143.697C2483.47,-135.898 2480.65,-126.509 2478.05,-117.829"/>
<polygon fill="grey" stroke="grey" stroke-width="2" points="2481.36,-116.677 2475.13,-108.104 2474.65,-118.688 2481.36,-116.677"/>
</g>
<!-- 35 -->
<g id="node36" class="node"><title>35</title>
<path fill="none" stroke="#afd856" stroke-width="2" stroke-dasharray="5,2" d="M771,-180C771,-180 741,-180 741,-180 735,-180 729,-174 729,-168 729,-168 729,-156 729,-156 729,-150 735,-144 741,-144 741,-144 771,-144 771,-144 777,-144 783,-150 783,-156 783,-156 783,-168 783,-168 783,-174 777,-180 771,-180"/>
<text text-anchor="middle" x="756" y="-159.5" font-family="sans" font-size="10.00">tsne</text>
</g>
<!-- 35&#45;&gt;11 -->
<g id="edge35" class="edge"><title>35&#45;&gt;11</title>
<path fill="none" stroke="grey" stroke-width="2" d="M756,-143.697C756,-135.983 756,-126.712 756,-118.112"/>
<polygon fill="grey" stroke="grey" stroke-width="2" points="759.5,-118.104 756,-108.104 752.5,-118.104 759.5,-118.104"/>
</g>
<!-- 36 -->
<g id="node37" class="node"><title>36</title>
<path fill="none" stroke="#afd856" stroke-width="2" stroke-dasharray="5,2" d="M2226,-180C2226,-180 2196,-180 2196,-180 2190,-180 2184,-174 2184,-168 2184,-168 2184,-156 2184,-156 2184,-150 2190,-144 2196,-144 2196,-144 2226,-144 2226,-144 2232,-144 2238,-150 2238,-156 2238,-156 2238,-168 2238,-168 2238,-174 2232,-180 2226,-180"/>
<text text-anchor="middle" x="2211" y="-159.5" font-family="sans" font-size="10.00">tsne</text>
</g>
<!-- 36&#45;&gt;12 -->
<g id="edge36" class="edge"><title>36&#45;&gt;12</title>
<path fill="none" stroke="grey" stroke-width="2" d="M2215.7,-143.697C2217.81,-135.898 2220.36,-126.509 2222.72,-117.829"/>
<polygon fill="grey" stroke="grey" stroke-width="2" points="2226.12,-118.672 2225.36,-108.104 2219.36,-116.838 2226.12,-118.672"/>
</g>
<!-- 37 -->
<g id="node38" class="node"><title>37</title>
<path fill="none" stroke="#d88d56" stroke-width="2" stroke-dasharray="5,2" d="M1633,-180C1633,-180 1603,-180 1603,-180 1597,-180 1591,-174 1591,-168 1591,-168 1591,-156 1591,-156 1591,-150 1597,-144 1603,-144 1603,-144 1633,-144 1633,-144 1639,-144 1645,-150 1645,-156 1645,-156 1645,-168 1645,-168 1645,-174 1639,-180 1633,-180"/>
<text text-anchor="middle" x="1618" y="-159.5" font-family="sans" font-size="10.00">pca</text>
</g>
<!-- 37&#45;&gt;13 -->
<g id="edge37" class="edge"><title>37&#45;&gt;13</title>
<path fill="none" stroke="grey" stroke-width="2" d="M1618,-143.697C1618,-135.983 1618,-126.712 1618,-118.112"/>
<polygon fill="grey" stroke="grey" stroke-width="2" points="1621.5,-118.104 1618,-108.104 1614.5,-118.104 1621.5,-118.104"/>
</g>
<!-- 38 -->
<g id="node39" class="node"><title>38</title>
<path fill="none" stroke="#56d873" stroke-width="2" stroke-dasharray="5,2" d="M896,-180C896,-180 832,-180 832,-180 826,-180 820,-174 820,-168 820,-168 820,-156 820,-156 820,-150 826,-144 832,-144 832,-144 896,-144 896,-144 902,-144 908,-150 908,-156 908,-156 908,-168 908,-168 908,-174 902,-180 896,-180"/>
<text text-anchor="middle" x="864" y="-159.5" font-family="sans" font-size="10.00">factor_analysis</text>
</g>
<!-- 38&#45;&gt;14 -->
<g id="edge38" class="edge"><title>38&#45;&gt;14</title>
<path fill="none" stroke="grey" stroke-width="2" d="M868.697,-143.697C870.813,-135.898 873.362,-126.509 875.718,-117.829"/>
<polygon fill="grey" stroke="grey" stroke-width="2" points="879.116,-118.672 878.357,-108.104 872.36,-116.838 879.116,-118.672"/>
</g>
<!-- 39 -->
<g id="node40" class="node"><title>39</title>
<path fill="none" stroke="#70d856" stroke-width="2" stroke-dasharray="5,2" d="M197,-180C197,-180 167,-180 167,-180 161,-180 155,-174 155,-168 155,-168 155,-156 155,-156 155,-150 161,-144 167,-144 167,-144 197,-144 197,-144 203,-144 209,-150 209,-156 209,-156 209,-168 209,-168 209,-174 203,-180 197,-180"/>
<text text-anchor="middle" x="182" y="-159.5" font-family="sans" font-size="10.00">zifa</text>
</g>
<!-- 39&#45;&gt;15 -->
<g id="edge39" class="edge"><title>39&#45;&gt;15</title>
<path fill="none" stroke="grey" stroke-width="2" d="M176.067,-143.697C173.394,-135.898 170.174,-126.509 167.199,-117.829"/>
<polygon fill="grey" stroke="grey" stroke-width="2" points="170.418,-116.429 163.864,-108.104 163.797,-118.699 170.418,-116.429"/>
</g>
<!-- 40 -->
<g id="node41" class="node"><title>40</title>
<path fill="none" stroke="#56d873" stroke-width="2" stroke-dasharray="5,2" d="M327,-180C327,-180 263,-180 263,-180 257,-180 251,-174 251,-168 251,-168 251,-156 251,-156 251,-150 257,-144 263,-144 263,-144 327,-144 327,-144 333,-144 339,-150 339,-156 339,-156 339,-168 339,-168 339,-174 333,-180 327,-180"/>
<text text-anchor="middle" x="295" y="-159.5" font-family="sans" font-size="10.00">factor_analysis</text>
</g>
<!-- 40&#45;&gt;16 -->
<g id="edge40" class="edge"><title>40&#45;&gt;16</title>
<path fill="none" stroke="grey" stroke-width="2" d="M295,-143.697C295,-135.983 295,-126.712 295,-118.112"/>
<polygon fill="grey" stroke="grey" stroke-width="2" points="298.5,-118.104 295,-108.104 291.5,-118.104 298.5,-118.104"/>
</g>
<!-- 41 -->
<g id="node42" class="node"><title>41</title>
<path fill="none" stroke="#d88d56" stroke-width="2" stroke-dasharray="5,2" d="M2600,-180C2600,-180 2570,-180 2570,-180 2564,-180 2558,-174 2558,-168 2558,-168 2558,-156 2558,-156 2558,-150 2564,-144 2570,-144 2570,-144 2600,-144 2600,-144 2606,-144 2612,-150 2612,-156 2612,-156 2612,-168 2612,-168 2612,-174 2606,-180 2600,-180"/>
<text text-anchor="middle" x="2585" y="-159.5" font-family="sans" font-size="10.00">pca</text>
</g>
<!-- 41&#45;&gt;17 -->
<g id="edge41" class="edge"><title>41&#45;&gt;17</title>
<path fill="none" stroke="grey" stroke-width="2" d="M2585,-143.697C2585,-135.983 2585,-126.712 2585,-118.112"/>
<polygon fill="grey" stroke="grey" stroke-width="2" points="2588.5,-118.104 2585,-108.104 2581.5,-118.104 2588.5,-118.104"/>
</g>
<!-- 42 -->
<g id="node43" class="node"><title>42</title>
<path fill="none" stroke="#afd856" stroke-width="2" stroke-dasharray="5,2" d="M418,-180C418,-180 388,-180 388,-180 382,-180 376,-174 376,-168 376,-168 376,-156 376,-156 376,-150 382,-144 388,-144 388,-144 418,-144 418,-144 424,-144 430,-150 430,-156 430,-156 430,-168 430,-168 430,-174 424,-180 418,-180"/>
<text text-anchor="middle" x="403" y="-159.5" font-family="sans" font-size="10.00">tsne</text>
</g>
<!-- 42&#45;&gt;18 -->
<g id="edge42" class="edge"><title>42&#45;&gt;18</title>
<path fill="none" stroke="grey" stroke-width="2" d="M407.697,-143.697C409.813,-135.898 412.362,-126.509 414.718,-117.829"/>
<polygon fill="grey" stroke="grey" stroke-width="2" points="418.116,-118.672 417.357,-108.104 411.36,-116.838 418.116,-118.672"/>
</g>
<!-- 43 -->
<g id="node44" class="node"><title>43</title>
<path fill="none" stroke="#afd856" stroke-width="2" stroke-dasharray="5,2" d="M2688,-180C2688,-180 2658,-180 2658,-180 2652,-180 2646,-174 2646,-168 2646,-168 2646,-156 2646,-156 2646,-150 2652,-144 2658,-144 2658,-144 2688,-144 2688,-144 2694,-144 2700,-150 2700,-156 2700,-156 2700,-168 2700,-168 2700,-174 2694,-180 2688,-180"/>
<text text-anchor="middle" x="2673" y="-159.5" font-family="sans" font-size="10.00">tsne</text>
</g>
<!-- 43&#45;&gt;19 -->
<g id="edge43" class="edge"><title>43&#45;&gt;19</title>
<path fill="none" stroke="grey" stroke-width="2" d="M2676.96,-143.697C2678.72,-135.983 2680.84,-126.712 2682.8,-118.112"/>
<polygon fill="grey" stroke="grey" stroke-width="2" points="2686.27,-118.633 2685.09,-108.104 2679.45,-117.073 2686.27,-118.633"/>
</g>
<!-- 44 -->
<g id="node45" class="node"><title>44</title>
<path fill="none" stroke="#56d873" stroke-width="2" stroke-dasharray="5,2" d="M1374,-180C1374,-180 1310,-180 1310,-180 1304,-180 1298,-174 1298,-168 1298,-168 1298,-156 1298,-156 1298,-150 1304,-144 1310,-144 1310,-144 1374,-144 1374,-144 1380,-144 1386,-150 1386,-156 1386,-156 1386,-168 1386,-168 1386,-174 1380,-180 1374,-180"/>
<text text-anchor="middle" x="1342" y="-159.5" font-family="sans" font-size="10.00">factor_analysis</text>
</g>
<!-- 44&#45;&gt;20 -->
<g id="edge44" class="edge"><title>44&#45;&gt;20</title>
<path fill="none" stroke="grey" stroke-width="2" d="M1347.93,-143.697C1350.61,-135.898 1353.83,-126.509 1356.8,-117.829"/>
<polygon fill="grey" stroke="grey" stroke-width="2" points="1360.2,-118.699 1360.14,-108.104 1353.58,-116.429 1360.2,-118.699"/>
</g>
<!-- 45 -->
<g id="node46" class="node"><title>45</title>
<path fill="none" stroke="#56d873" stroke-width="2" stroke-dasharray="5,2" d="M1758,-180C1758,-180 1694,-180 1694,-180 1688,-180 1682,-174 1682,-168 1682,-168 1682,-156 1682,-156 1682,-150 1688,-144 1694,-144 1694,-144 1758,-144 1758,-144 1764,-144 1770,-150 1770,-156 1770,-156 1770,-168 1770,-168 1770,-174 1764,-180 1758,-180"/>
<text text-anchor="middle" x="1726" y="-159.5" font-family="sans" font-size="10.00">factor_analysis</text>
</g>
<!-- 45&#45;&gt;21 -->
<g id="edge45" class="edge"><title>45&#45;&gt;21</title>
<path fill="none" stroke="grey" stroke-width="2" d="M1730.7,-143.697C1732.81,-135.898 1735.36,-126.509 1737.72,-117.829"/>
<polygon fill="grey" stroke="grey" stroke-width="2" points="1741.12,-118.672 1740.36,-108.104 1734.36,-116.838 1741.12,-118.672"/>
</g>
<!-- 46 -->
<g id="node47" class="node"><title>46</title>
<path fill="none" stroke="#56d873" stroke-width="2" stroke-dasharray="5,2" d="M2821,-180C2821,-180 2757,-180 2757,-180 2751,-180 2745,-174 2745,-168 2745,-168 2745,-156 2745,-156 2745,-150 2751,-144 2757,-144 2757,-144 2821,-144 2821,-144 2827,-144 2833,-150 2833,-156 2833,-156 2833,-168 2833,-168 2833,-174 2827,-180 2821,-180"/>
<text text-anchor="middle" x="2789" y="-159.5" font-family="sans" font-size="10.00">factor_analysis</text>
</g>
<!-- 46&#45;&gt;22 -->
<g id="edge46" class="edge"><title>46&#45;&gt;22</title>
<path fill="none" stroke="grey" stroke-width="2" d="M2795.67,-143.697C2798.71,-135.813 2802.38,-126.304 2805.76,-117.546"/>
<polygon fill="grey" stroke="grey" stroke-width="2" points="2809.07,-118.694 2809.4,-108.104 2802.54,-116.175 2809.07,-118.694"/>
</g>
<!-- 47 -->
<g id="node48" class="node"><title>47</title>
<path fill="none" stroke="#70d856" stroke-width="2" stroke-dasharray="5,2" d="M2329,-180C2329,-180 2299,-180 2299,-180 2293,-180 2287,-174 2287,-168 2287,-168 2287,-156 2287,-156 2287,-150 2293,-144 2299,-144 2299,-144 2329,-144 2329,-144 2335,-144 2341,-150 2341,-156 2341,-156 2341,-168 2341,-168 2341,-174 2335,-180 2329,-180"/>
<text text-anchor="middle" x="2314" y="-159.5" font-family="sans" font-size="10.00">zifa</text>
</g>
<!-- 47&#45;&gt;23 -->
<g id="edge47" class="edge"><title>47&#45;&gt;23</title>
<path fill="none" stroke="grey" stroke-width="2" d="M2321.66,-143.697C2325.19,-135.728 2329.46,-126.1 2333.37,-117.264"/>
<polygon fill="grey" stroke="grey" stroke-width="2" points="2336.58,-118.665 2337.43,-108.104 2330.18,-115.831 2336.58,-118.665"/>
</g>
<!-- 48 -->
<g id="node49" class="node"><title>48</title>
<path fill="none" stroke="#afd856" stroke-width="2" stroke-dasharray="5,2" d="M1859,-180C1859,-180 1829,-180 1829,-180 1823,-180 1817,-174 1817,-168 1817,-168 1817,-156 1817,-156 1817,-150 1823,-144 1829,-144 1829,-144 1859,-144 1859,-144 1865,-144 1871,-150 1871,-156 1871,-156 1871,-168 1871,-168 1871,-174 1865,-180 1859,-180"/>
<text text-anchor="middle" x="1844" y="-159.5" font-family="sans" font-size="10.00">tsne</text>
</g>
<!-- 48&#45;&gt;24 -->
<g id="edge48" class="edge"><title>48&#45;&gt;24</title>
<path fill="none" stroke="grey" stroke-width="2" d="M1850.92,-143.697C1854.07,-135.813 1857.88,-126.304 1861.38,-117.546"/>
<polygon fill="grey" stroke="grey" stroke-width="2" points="1864.69,-118.689 1865.16,-108.104 1858.19,-116.089 1864.69,-118.689"/>
</g>
<!-- 49 -->
<g id="node50" class="node"><title>49</title>
<path fill="none" stroke="#5692d8" stroke-width="2" stroke-dasharray="5,2" d="M325.5,-252C325.5,-252 264.5,-252 264.5,-252 258.5,-252 252.5,-246 252.5,-240 252.5,-240 252.5,-228 252.5,-228 252.5,-222 258.5,-216 264.5,-216 264.5,-216 325.5,-216 325.5,-216 331.5,-216 337.5,-222 337.5,-228 337.5,-228 337.5,-240 337.5,-240 337.5,-246 331.5,-252 325.5,-252"/>
<text text-anchor="middle" x="295" y="-237" font-family="sans" font-size="10.00">simulate_data</text>
<text text-anchor="middle" x="295" y="-226" font-family="sans" font-size="10.00">loc: 1.5</text>
</g>
<!-- 49&#45;&gt;25 -->
<g id="edge49" class="edge"><title>49&#45;&gt;25</title>
<path fill="none" stroke="grey" stroke-width="2" d="M252.255,-219.337C211.69,-206.371 151.36,-187.088 112.859,-174.781"/>
<polygon fill="grey" stroke="grey" stroke-width="2" points="113.681,-171.37 103.09,-171.659 111.549,-178.037 113.681,-171.37"/>
</g>
<!-- 49&#45;&gt;39 -->
<g id="edge63" class="edge"><title>49&#45;&gt;39</title>
<path fill="none" stroke="grey" stroke-width="2" d="M267.357,-215.876C252.472,-206.655 233.934,-195.172 217.941,-185.265"/>
<polygon fill="grey" stroke="grey" stroke-width="2" points="219.702,-182.238 209.358,-179.947 216.015,-188.189 219.702,-182.238"/>
</g>
<!-- 49&#45;&gt;40 -->
<g id="edge64" class="edge"><title>49&#45;&gt;40</title>
<path fill="none" stroke="grey" stroke-width="2" d="M295,-215.697C295,-207.983 295,-198.712 295,-190.112"/>
<polygon fill="grey" stroke="grey" stroke-width="2" points="298.5,-190.104 295,-180.104 291.5,-190.104 298.5,-190.104"/>
</g>
<!-- 49&#45;&gt;42 -->
<g id="edge66" class="edge"><title>49&#45;&gt;42</title>
<path fill="none" stroke="grey" stroke-width="2" d="M321.42,-215.876C335.41,-206.808 352.776,-195.552 367.886,-185.759"/>
<polygon fill="grey" stroke="grey" stroke-width="2" points="369.991,-188.566 376.479,-180.19 366.183,-182.692 369.991,-188.566"/>
</g>
<!-- 50 -->
<g id="node51" class="node"><title>50</title>
<path fill="none" stroke="#5692d8" stroke-width="2" stroke-dasharray="5,2" d="M786.5,-252C786.5,-252 725.5,-252 725.5,-252 719.5,-252 713.5,-246 713.5,-240 713.5,-240 713.5,-228 713.5,-228 713.5,-222 719.5,-216 725.5,-216 725.5,-216 786.5,-216 786.5,-216 792.5,-216 798.5,-222 798.5,-228 798.5,-228 798.5,-240 798.5,-240 798.5,-246 792.5,-252 786.5,-252"/>
<text text-anchor="middle" x="756" y="-237" font-family="sans" font-size="10.00">simulate_data</text>
<text text-anchor="middle" x="756" y="-226" font-family="sans" font-size="10.00">loc: 3</text>
</g>
<!-- 50&#45;&gt;26 -->
<g id="edge50" class="edge"><title>50&#45;&gt;26</title>
<path fill="none" stroke="grey" stroke-width="2" d="M713.106,-216.411C682.205,-204.461 640.954,-188.507 611.602,-177.155"/>
<polygon fill="grey" stroke="grey" stroke-width="2" points="612.725,-173.837 602.136,-173.494 610.2,-180.366 612.725,-173.837"/>
</g>
<!-- 50&#45;&gt;30 -->
<g id="edge54" class="edge"><title>50&#45;&gt;30</title>
<path fill="none" stroke="grey" stroke-width="2" d="M734.247,-215.697C723.164,-206.881 709.526,-196.032 697.51,-186.474"/>
<polygon fill="grey" stroke="grey" stroke-width="2" points="699.507,-183.59 689.503,-180.104 695.15,-189.069 699.507,-183.59"/>
</g>
<!-- 50&#45;&gt;35 -->
<g id="edge59" class="edge"><title>50&#45;&gt;35</title>
<path fill="none" stroke="grey" stroke-width="2" d="M756,-215.697C756,-207.983 756,-198.712 756,-190.112"/>
<polygon fill="grey" stroke="grey" stroke-width="2" points="759.5,-190.104 756,-180.104 752.5,-190.104 759.5,-190.104"/>
</g>
<!-- 50&#45;&gt;38 -->
<g id="edge62" class="edge"><title>50&#45;&gt;38</title>
<path fill="none" stroke="grey" stroke-width="2" d="M782.42,-215.876C796.41,-206.808 813.776,-195.552 828.886,-185.759"/>
<polygon fill="grey" stroke="grey" stroke-width="2" points="830.991,-188.566 837.479,-180.19 827.183,-182.692 830.991,-188.566"/>
</g>
<!-- 51 -->
<g id="node52" class="node"><title>51</title>
<path fill="none" stroke="#5692d8" stroke-width="2" stroke-dasharray="5,2" d="M1259.5,-252C1259.5,-252 1198.5,-252 1198.5,-252 1192.5,-252 1186.5,-246 1186.5,-240 1186.5,-240 1186.5,-228 1186.5,-228 1186.5,-222 1192.5,-216 1198.5,-216 1198.5,-216 1259.5,-216 1259.5,-216 1265.5,-216 1271.5,-222 1271.5,-228 1271.5,-228 1271.5,-240 1271.5,-240 1271.5,-246 1265.5,-252 1259.5,-252"/>
<text text-anchor="middle" x="1229" y="-237" font-family="sans" font-size="10.00">simulate_data</text>
<text text-anchor="middle" x="1229" y="-226" font-family="sans" font-size="10.00">loc: 0.5</text>
</g>
<!-- 51&#45;&gt;27 -->
<g id="edge51" class="edge"><title>51&#45;&gt;27</title>
<path fill="none" stroke="grey" stroke-width="2" d="M1186.17,-217.465C1152.15,-205.127 1105.09,-188.058 1072.76,-176.334"/>
<polygon fill="grey" stroke="grey" stroke-width="2" points="1073.83,-172.998 1063.24,-172.879 1071.44,-179.578 1073.83,-172.998"/>
</g>
<!-- 51&#45;&gt;28 -->
<g id="edge52" class="edge"><title>51&#45;&gt;28</title>
<path fill="none" stroke="grey" stroke-width="2" d="M1205.76,-215.697C1193.81,-206.796 1179.08,-195.823 1166.15,-186.199"/>
<polygon fill="grey" stroke="grey" stroke-width="2" points="1168.08,-183.27 1157.97,-180.104 1163.9,-188.884 1168.08,-183.27"/>
</g>
<!-- 51&#45;&gt;31 -->
<g id="edge55" class="edge"><title>51&#45;&gt;31</title>
<path fill="none" stroke="grey" stroke-width="2" d="M1229,-215.697C1229,-207.983 1229,-198.712 1229,-190.112"/>
<polygon fill="grey" stroke="grey" stroke-width="2" points="1232.5,-190.104 1229,-180.104 1225.5,-190.104 1232.5,-190.104"/>
</g>
<!-- 51&#45;&gt;44 -->
<g id="edge68" class="edge"><title>51&#45;&gt;44</title>
<path fill="none" stroke="grey" stroke-width="2" d="M1256.64,-215.876C1271.42,-206.724 1289.79,-195.342 1305.7,-185.485"/>
<polygon fill="grey" stroke="grey" stroke-width="2" points="1307.59,-188.431 1314.25,-180.19 1303.91,-182.481 1307.59,-188.431"/>
</g>
<!-- 52 -->
<g id="node53" class="node"><title>52</title>
<path fill="none" stroke="#5692d8" stroke-width="2" stroke-dasharray="5,2" d="M1648.5,-252C1648.5,-252 1587.5,-252 1587.5,-252 1581.5,-252 1575.5,-246 1575.5,-240 1575.5,-240 1575.5,-228 1575.5,-228 1575.5,-222 1581.5,-216 1587.5,-216 1587.5,-216 1648.5,-216 1648.5,-216 1654.5,-216 1660.5,-222 1660.5,-228 1660.5,-228 1660.5,-240 1660.5,-240 1660.5,-246 1654.5,-252 1648.5,-252"/>
<text text-anchor="middle" x="1618" y="-237" font-family="sans" font-size="10.00">simulate_data</text>
<text text-anchor="middle" x="1618" y="-226" font-family="sans" font-size="10.00">loc: 1</text>
</g>
<!-- 52&#45;&gt;29 -->
<g id="edge53" class="edge"><title>52&#45;&gt;29</title>
<path fill="none" stroke="grey" stroke-width="2" d="M1594.76,-215.697C1582.81,-206.796 1568.08,-195.823 1555.15,-186.199"/>
<polygon fill="grey" stroke="grey" stroke-width="2" points="1557.08,-183.27 1546.97,-180.104 1552.9,-188.884 1557.08,-183.27"/>
</g>
<!-- 52&#45;&gt;37 -->
<g id="edge61" class="edge"><title>52&#45;&gt;37</title>
<path fill="none" stroke="grey" stroke-width="2" d="M1618,-215.697C1618,-207.983 1618,-198.712 1618,-190.112"/>
<polygon fill="grey" stroke="grey" stroke-width="2" points="1621.5,-190.104 1618,-180.104 1614.5,-190.104 1621.5,-190.104"/>
</g>
<!-- 52&#45;&gt;45 -->
<g id="edge69" class="edge"><title>52&#45;&gt;45</title>
<path fill="none" stroke="grey" stroke-width="2" d="M1644.42,-215.876C1658.41,-206.808 1675.78,-195.552 1690.89,-185.759"/>
<polygon fill="grey" stroke="grey" stroke-width="2" points="1692.99,-188.566 1699.48,-180.19 1689.18,-182.692 1692.99,-188.566"/>
</g>
<!-- 52&#45;&gt;48 -->
<g id="edge72" class="edge"><title>52&#45;&gt;48</title>
<path fill="none" stroke="grey" stroke-width="2" d="M1660.51,-219.834C1702.83,-206.726 1767.1,-186.818 1807.27,-174.377"/>
<polygon fill="grey" stroke="grey" stroke-width="2" points="1808.42,-177.685 1816.93,-171.383 1806.35,-170.999 1808.42,-177.685"/>
</g>
<!-- 53 -->
<g id="node54" class="node"><title>53</title>
<path fill="none" stroke="#5692d8" stroke-width="2" stroke-dasharray="5,2" d="M2133.5,-252C2133.5,-252 2072.5,-252 2072.5,-252 2066.5,-252 2060.5,-246 2060.5,-240 2060.5,-240 2060.5,-228 2060.5,-228 2060.5,-222 2066.5,-216 2072.5,-216 2072.5,-216 2133.5,-216 2133.5,-216 2139.5,-216 2145.5,-222 2145.5,-228 2145.5,-228 2145.5,-240 2145.5,-240 2145.5,-246 2139.5,-252 2133.5,-252"/>
<text text-anchor="middle" x="2103" y="-237" font-family="sans" font-size="10.00">simulate_data</text>
<text text-anchor="middle" x="2103" y="-226" font-family="sans" font-size="10.00">loc: 2.5</text>
</g>
<!-- 53&#45;&gt;32 -->
<g id="edge56" class="edge"><title>53&#45;&gt;32</title>
<path fill="none" stroke="grey" stroke-width="2" d="M2076.58,-215.876C2062.59,-206.808 2045.22,-195.552 2030.11,-185.759"/>
<polygon fill="grey" stroke="grey" stroke-width="2" points="2031.82,-182.692 2021.52,-180.19 2028.01,-188.566 2031.82,-182.692"/>
</g>
<!-- 53&#45;&gt;33 -->
<g id="edge57" class="edge"><title>53&#45;&gt;33</title>
<path fill="none" stroke="grey" stroke-width="2" d="M2103,-215.697C2103,-207.983 2103,-198.712 2103,-190.112"/>
<polygon fill="grey" stroke="grey" stroke-width="2" points="2106.5,-190.104 2103,-180.104 2099.5,-190.104 2106.5,-190.104"/>
</g>
<!-- 53&#45;&gt;36 -->
<g id="edge60" class="edge"><title>53&#45;&gt;36</title>
<path fill="none" stroke="grey" stroke-width="2" d="M2129.42,-215.876C2143.41,-206.808 2160.78,-195.552 2175.89,-185.759"/>
<polygon fill="grey" stroke="grey" stroke-width="2" points="2177.99,-188.566 2184.48,-180.19 2174.18,-182.692 2177.99,-188.566"/>
</g>
<!-- 53&#45;&gt;47 -->
<g id="edge71" class="edge"><title>53&#45;&gt;47</title>
<path fill="none" stroke="grey" stroke-width="2" d="M2145.7,-218.834C2184.22,-206.054 2240.31,-187.445 2276.98,-175.282"/>
<polygon fill="grey" stroke="grey" stroke-width="2" points="2278.38,-178.503 2286.77,-172.033 2276.18,-171.859 2278.38,-178.503"/>
</g>
<!-- 54 -->
<g id="node55" class="node"><title>54</title>
<path fill="none" stroke="#5692d8" stroke-width="2" stroke-dasharray="5,2" d="M2615.5,-252C2615.5,-252 2554.5,-252 2554.5,-252 2548.5,-252 2542.5,-246 2542.5,-240 2542.5,-240 2542.5,-228 2542.5,-228 2542.5,-222 2548.5,-216 2554.5,-216 2554.5,-216 2615.5,-216 2615.5,-216 2621.5,-216 2627.5,-222 2627.5,-228 2627.5,-228 2627.5,-240 2627.5,-240 2627.5,-246 2621.5,-252 2615.5,-252"/>
<text text-anchor="middle" x="2585" y="-237" font-family="sans" font-size="10.00">simulate_data</text>
<text text-anchor="middle" x="2585" y="-226" font-family="sans" font-size="10.00">loc: 2</text>
</g>
<!-- 54&#45;&gt;34 -->
<g id="edge58" class="edge"><title>54&#45;&gt;34</title>
<path fill="none" stroke="grey" stroke-width="2" d="M2561.76,-215.697C2549.81,-206.796 2535.08,-195.823 2522.15,-186.199"/>
<polygon fill="grey" stroke="grey" stroke-width="2" points="2524.08,-183.27 2513.97,-180.104 2519.9,-188.884 2524.08,-183.27"/>
</g>
<!-- 54&#45;&gt;41 -->
<g id="edge65" class="edge"><title>54&#45;&gt;41</title>
<path fill="none" stroke="grey" stroke-width="2" d="M2585,-215.697C2585,-207.983 2585,-198.712 2585,-190.112"/>
<polygon fill="grey" stroke="grey" stroke-width="2" points="2588.5,-190.104 2585,-180.104 2581.5,-190.104 2588.5,-190.104"/>
</g>
<!-- 54&#45;&gt;43 -->
<g id="edge67" class="edge"><title>54&#45;&gt;43</title>
<path fill="none" stroke="grey" stroke-width="2" d="M2606.75,-215.697C2617.84,-206.881 2631.47,-196.032 2643.49,-186.474"/>
<polygon fill="grey" stroke="grey" stroke-width="2" points="2645.85,-189.069 2651.5,-180.104 2641.49,-183.59 2645.85,-189.069"/>
</g>
<!-- 54&#45;&gt;46 -->
<g id="edge70" class="edge"><title>54&#45;&gt;46</title>
<path fill="none" stroke="grey" stroke-width="2" d="M2627.77,-218.326C2659.03,-207.598 2701.65,-192.972 2735.22,-181.452"/>
<polygon fill="grey" stroke="grey" stroke-width="2" points="2736.56,-184.695 2744.88,-178.138 2734.29,-178.074 2736.56,-184.695"/>
</g>
<!-- 55 -->
<g id="node56" class="node"><title>55</title>
<path fill="none" stroke="#d8cb56" stroke-width="2" stroke-dasharray="5,2" d="M1469,-324C1469,-324 1377,-324 1377,-324 1371,-324 1365,-318 1365,-312 1365,-312 1365,-300 1365,-300 1365,-294 1371,-288 1377,-288 1377,-288 1469,-288 1469,-288 1475,-288 1481,-294 1481,-300 1481,-300 1481,-312 1481,-312 1481,-318 1475,-324 1469,-324"/>
<text text-anchor="middle" x="1423" y="-303.5" font-family="sans" font-size="10.00">preprocess_zheng17</text>
</g>
<!-- 55&#45;&gt;49 -->
<g id="edge73" class="edge"><title>55&#45;&gt;49</title>
<path fill="none" stroke="grey" stroke-width="2" d="M1364.73,-301.384C1168.8,-289.225 535.606,-249.931 347.908,-238.283"/>
<polygon fill="grey" stroke="grey" stroke-width="2" points="347.944,-234.779 337.746,-237.653 347.51,-241.765 347.944,-234.779"/>
</g>
<!-- 55&#45;&gt;50 -->
<g id="edge74" class="edge"><title>55&#45;&gt;50</title>
<path fill="none" stroke="grey" stroke-width="2" d="M1364.97,-298.91C1237.01,-285.481 932.199,-253.492 809.009,-240.563"/>
<polygon fill="grey" stroke="grey" stroke-width="2" points="809.02,-237.045 798.71,-239.482 808.29,-244.007 809.02,-237.045"/>
</g>
<!-- 55&#45;&gt;51 -->
<g id="edge75" class="edge"><title>55&#45;&gt;51</title>
<path fill="none" stroke="grey" stroke-width="2" d="M1375.54,-287.876C1347.02,-277.585 1310.69,-264.475 1281.34,-253.884"/>
<polygon fill="grey" stroke="grey" stroke-width="2" points="1282.27,-250.499 1271.67,-250.397 1279.89,-257.083 1282.27,-250.499"/>
</g>
<!-- 55&#45;&gt;52 -->
<g id="edge76" class="edge"><title>55&#45;&gt;52</title>
<path fill="none" stroke="grey" stroke-width="2" d="M1470.7,-287.876C1499.47,-277.549 1536.15,-264.382 1565.71,-253.772"/>
<polygon fill="grey" stroke="grey" stroke-width="2" points="1567.21,-256.952 1575.44,-250.279 1564.84,-250.364 1567.21,-256.952"/>
</g>
<!-- 55&#45;&gt;53 -->
<g id="edge77" class="edge"><title>55&#45;&gt;53</title>
<path fill="none" stroke="grey" stroke-width="2" d="M1481.27,-299.002C1611.58,-285.587 1924.91,-253.332 2050.06,-240.45"/>
<polygon fill="grey" stroke="grey" stroke-width="2" points="2050.57,-243.916 2060.16,-239.41 2049.85,-236.952 2050.57,-243.916"/>
</g>
<!-- 55&#45;&gt;54 -->
<g id="edge78" class="edge"><title>55&#45;&gt;54</title>
<path fill="none" stroke="grey" stroke-width="2" d="M1481.02,-301.505C1681.06,-289.454 2340.2,-249.747 2532.13,-238.185"/>
<polygon fill="grey" stroke="grey" stroke-width="2" points="2532.47,-241.671 2542.24,-237.576 2532.05,-234.684 2532.47,-241.671"/>
</g>
<!-- 56 -->
<g id="node57" class="node"><title>56</title>
<path fill="none" stroke="#d85656" stroke-width="2" stroke-dasharray="5,2" d="M1449.5,-396C1449.5,-396 1396.5,-396 1396.5,-396 1390.5,-396 1384.5,-390 1384.5,-384 1384.5,-384 1384.5,-372 1384.5,-372 1384.5,-366 1390.5,-360 1396.5,-360 1396.5,-360 1449.5,-360 1449.5,-360 1455.5,-360 1461.5,-366 1461.5,-372 1461.5,-372 1461.5,-384 1461.5,-384 1461.5,-390 1455.5,-396 1449.5,-396"/>
<text text-anchor="middle" x="1423" y="-375.5" font-family="sans" font-size="10.00">create_loom</text>
</g>
<!-- 56&#45;&gt;55 -->
<g id="edge79" class="edge"><title>56&#45;&gt;55</title>
<path fill="none" stroke="grey" stroke-width="2" d="M1423,-359.697C1423,-351.983 1423,-342.712 1423,-334.112"/>
<polygon fill="grey" stroke="grey" stroke-width="2" points="1426.5,-334.104 1423,-324.104 1419.5,-334.104 1426.5,-334.104"/>
</g>
</g>
</svg>
