<?xml version="1.0" encoding="UTF-8" standalone="no"?>
<!DOCTYPE svg PUBLIC "-//W3C//DTD SVG 1.1//EN"
 "http://www.w3.org/Graphics/SVG/1.1/DTD/svg11.dtd">
<!-- Generated by graphviz version 2.38.0 (20140413.2041)
 -->
<!-- Title: snakemake_dag Pages: 1 -->
<svg width="2137pt" height="404pt"
 viewBox="0.00 0.00 2137.00 404.00" xmlns="http://www.w3.org/2000/svg" xmlns:xlink="http://www.w3.org/1999/xlink">
<g id="graph0" class="graph" transform="scale(1 1) rotate(0) translate(4 400)">
<title>snakemake_dag</title>
<polygon fill="white" stroke="none" points="-4,4 -4,-400 2133,-400 2133,4 -4,4"/>
<!-- 0 -->
<g id="node1" class="node"><title>0</title>
<path fill="none" stroke="#d85656" stroke-width="2" d="M1068,-36C1068,-36 1038,-36 1038,-36 1032,-36 1026,-30 1026,-24 1026,-24 1026,-12 1026,-12 1026,-6 1032,-0 1038,-0 1038,-0 1068,-0 1068,-0 1074,-0 1080,-6 1080,-12 1080,-12 1080,-24 1080,-24 1080,-30 1074,-36 1068,-36"/>
<text text-anchor="middle" x="1053" y="-15.5" font-family="sans" font-size="10.00">all</text>
</g>
<!-- 1 -->
<g id="node2" class="node"><title>1</title>
<path fill="none" stroke="#d88d56" stroke-width="2" stroke-dasharray="5,2" d="M74,-108C74,-108 12,-108 12,-108 6,-108 0,-102 0,-96 0,-96 0,-84 0,-84 0,-78 6,-72 12,-72 12,-72 74,-72 74,-72 80,-72 86,-78 86,-84 86,-84 86,-96 86,-96 86,-102 80,-108 74,-108"/>
<text text-anchor="middle" x="43" y="-93" font-family="sans" font-size="10.00">cluster_results</text>
<text text-anchor="middle" x="43" y="-82" font-family="sans" font-size="10.00">method: tsne</text>
</g>
<!-- 1&#45;&gt;0 -->
<g id="edge1" class="edge"><title>1&#45;&gt;0</title>
<path fill="none" stroke="grey" stroke-width="2" d="M86.191,-73.9468C89.1507,-73.2045 92.1062,-72.5434 95,-72 276.259,-37.9632 860.717,-23.1545 1015.24,-19.7762"/>
<polygon fill="grey" stroke="grey" stroke-width="2" points="1015.69,-23.2674 1025.61,-19.5526 1015.53,-16.269 1015.69,-23.2674"/>
</g>
<!-- 2 -->
<g id="node3" class="node"><title>2</title>
<path fill="none" stroke="#d88d56" stroke-width="2" stroke-dasharray="5,2" d="M432,-108C432,-108 370,-108 370,-108 364,-108 358,-102 358,-96 358,-96 358,-84 358,-84 358,-78 364,-72 370,-72 370,-72 432,-72 432,-72 438,-72 444,-78 444,-84 444,-84 444,-96 444,-96 444,-102 438,-108 432,-108"/>
<text text-anchor="middle" x="401" y="-93" font-family="sans" font-size="10.00">cluster_results</text>
<text text-anchor="middle" x="401" y="-82" font-family="sans" font-size="10.00">method: tsne</text>
</g>
<!-- 2&#45;&gt;0 -->
<g id="edge2" class="edge"><title>2&#45;&gt;0</title>
<path fill="none" stroke="grey" stroke-width="2" d="M444.213,-74.0567C447.167,-73.2879 450.116,-72.5908 453,-72 662.618,-29.0636 920.455,-20.9046 1015.52,-19.3591"/>
<polygon fill="grey" stroke="grey" stroke-width="2" points="1015.82,-22.8551 1025.77,-19.2083 1015.72,-15.8559 1015.82,-22.8551"/>
</g>
<!-- 3 -->
<g id="node4" class="node"><title>3</title>
<path fill="none" stroke="#d88d56" stroke-width="2" stroke-dasharray="5,2" d="M790,-108C790,-108 728,-108 728,-108 722,-108 716,-102 716,-96 716,-96 716,-84 716,-84 716,-78 722,-72 728,-72 728,-72 790,-72 790,-72 796,-72 802,-78 802,-84 802,-84 802,-96 802,-96 802,-102 796,-108 790,-108"/>
<text text-anchor="middle" x="759" y="-93" font-family="sans" font-size="10.00">cluster_results</text>
<text text-anchor="middle" x="759" y="-82" font-family="sans" font-size="10.00">method: pca</text>
</g>
<!-- 3&#45;&gt;0 -->
<g id="edge3" class="edge"><title>3&#45;&gt;0</title>
<path fill="none" stroke="grey" stroke-width="2" d="M802.03,-74.5642C805.055,-73.6627 808.067,-72.7983 811,-72 882.912,-52.4234 968.352,-35.0655 1016.06,-25.8924"/>
<polygon fill="grey" stroke="grey" stroke-width="2" points="1016.76,-29.3211 1025.93,-24.0077 1015.45,-22.4453 1016.76,-29.3211"/>
</g>
<!-- 4 -->
<g id="node5" class="node"><title>4</title>
<path fill="none" stroke="#d88d56" stroke-width="2" stroke-dasharray="5,2" d="M1148,-108C1148,-108 1086,-108 1086,-108 1080,-108 1074,-102 1074,-96 1074,-96 1074,-84 1074,-84 1074,-78 1080,-72 1086,-72 1086,-72 1148,-72 1148,-72 1154,-72 1160,-78 1160,-84 1160,-84 1160,-96 1160,-96 1160,-102 1154,-108 1148,-108"/>
<text text-anchor="middle" x="1117" y="-93" font-family="sans" font-size="10.00">cluster_results</text>
<text text-anchor="middle" x="1117" y="-82" font-family="sans" font-size="10.00">method: pca</text>
</g>
<!-- 4&#45;&gt;0 -->
<g id="edge4" class="edge"><title>4&#45;&gt;0</title>
<path fill="none" stroke="grey" stroke-width="2" d="M1101.18,-71.6966C1093.43,-63.2198 1083.96,-52.8636 1075.48,-43.5826"/>
<polygon fill="grey" stroke="grey" stroke-width="2" points="1077.97,-41.1229 1068.64,-36.1043 1072.8,-45.8464 1077.97,-41.1229"/>
</g>
<!-- 5 -->
<g id="node6" class="node"><title>5</title>
<path fill="none" stroke="#d88d56" stroke-width="2" stroke-dasharray="5,2" d="M1297.5,-108C1297.5,-108 1190.5,-108 1190.5,-108 1184.5,-108 1178.5,-102 1178.5,-96 1178.5,-96 1178.5,-84 1178.5,-84 1178.5,-78 1184.5,-72 1190.5,-72 1190.5,-72 1297.5,-72 1297.5,-72 1303.5,-72 1309.5,-78 1309.5,-84 1309.5,-84 1309.5,-96 1309.5,-96 1309.5,-102 1303.5,-108 1297.5,-108"/>
<text text-anchor="middle" x="1244" y="-93" font-family="sans" font-size="10.00">cluster_results</text>
<text text-anchor="middle" x="1244" y="-82" font-family="sans" font-size="10.00">method: factor_analysis</text>
</g>
<!-- 5&#45;&gt;0 -->
<g id="edge5" class="edge"><title>5&#45;&gt;0</title>
<path fill="none" stroke="grey" stroke-width="2" d="M1197.28,-71.8761C1164.09,-59.714 1120.16,-43.6154 1089.53,-32.3897"/>
<polygon fill="grey" stroke="grey" stroke-width="2" points="1090.68,-29.0823 1080.09,-28.9274 1088.27,-35.6548 1090.68,-29.0823"/>
</g>
<!-- 6 -->
<g id="node7" class="node"><title>6</title>
<path fill="none" stroke="#d88d56" stroke-width="2" stroke-dasharray="5,2" d="M1506,-108C1506,-108 1444,-108 1444,-108 1438,-108 1432,-102 1432,-96 1432,-96 1432,-84 1432,-84 1432,-78 1438,-72 1444,-72 1444,-72 1506,-72 1506,-72 1512,-72 1518,-78 1518,-84 1518,-84 1518,-96 1518,-96 1518,-102 1512,-108 1506,-108"/>
<text text-anchor="middle" x="1475" y="-93" font-family="sans" font-size="10.00">cluster_results</text>
<text text-anchor="middle" x="1475" y="-82" font-family="sans" font-size="10.00">method: pca</text>
</g>
<!-- 6&#45;&gt;0 -->
<g id="edge6" class="edge"><title>6&#45;&gt;0</title>
<path fill="none" stroke="grey" stroke-width="2" d="M1431.75,-74.2372C1428.8,-73.4248 1425.87,-72.6687 1423,-72 1303.03,-44.02 1157.52,-28.392 1090.32,-22.1833"/>
<polygon fill="grey" stroke="grey" stroke-width="2" points="1090.5,-18.6853 1080.23,-21.2673 1089.87,-25.6567 1090.5,-18.6853"/>
</g>
<!-- 7 -->
<g id="node8" class="node"><title>7</title>
<path fill="none" stroke="#d88d56" stroke-width="2" stroke-dasharray="5,2" d="M1908.5,-108C1908.5,-108 1801.5,-108 1801.5,-108 1795.5,-108 1789.5,-102 1789.5,-96 1789.5,-96 1789.5,-84 1789.5,-84 1789.5,-78 1795.5,-72 1801.5,-72 1801.5,-72 1908.5,-72 1908.5,-72 1914.5,-72 1920.5,-78 1920.5,-84 1920.5,-84 1920.5,-96 1920.5,-96 1920.5,-102 1914.5,-108 1908.5,-108"/>
<text text-anchor="middle" x="1855" y="-93" font-family="sans" font-size="10.00">cluster_results</text>
<text text-anchor="middle" x="1855" y="-82" font-family="sans" font-size="10.00">method: factor_analysis</text>
</g>
<!-- 7&#45;&gt;0 -->
<g id="edge7" class="edge"><title>7&#45;&gt;0</title>
<path fill="none" stroke="grey" stroke-width="2" d="M1789.26,-73.5111C1786.13,-72.9606 1783.04,-72.4523 1780,-72 1517.74,-32.9434 1197.79,-22.316 1090.25,-19.7444"/>
<polygon fill="grey" stroke="grey" stroke-width="2" points="1090.31,-16.2448 1080.23,-19.5136 1090.14,-23.243 1090.31,-16.2448"/>
</g>
<!-- 8 -->
<g id="node9" class="node"><title>8</title>
<path fill="none" stroke="#d88d56" stroke-width="2" stroke-dasharray="5,2" d="M2013,-108C2013,-108 1951,-108 1951,-108 1945,-108 1939,-102 1939,-96 1939,-96 1939,-84 1939,-84 1939,-78 1945,-72 1951,-72 1951,-72 2013,-72 2013,-72 2019,-72 2025,-78 2025,-84 2025,-84 2025,-96 2025,-96 2025,-102 2019,-108 2013,-108"/>
<text text-anchor="middle" x="1982" y="-93" font-family="sans" font-size="10.00">cluster_results</text>
<text text-anchor="middle" x="1982" y="-82" font-family="sans" font-size="10.00">method: pca</text>
</g>
<!-- 8&#45;&gt;0 -->
<g id="edge8" class="edge"><title>8&#45;&gt;0</title>
<path fill="none" stroke="grey" stroke-width="2" d="M1938.84,-74.1864C1935.54,-73.3503 1932.23,-72.6057 1929,-72 1764.28,-41.1045 1235.75,-24.1694 1090.34,-20.0169"/>
<polygon fill="grey" stroke="grey" stroke-width="2" points="1090.25,-16.513 1080.15,-19.7291 1090.05,-23.5102 1090.25,-16.513"/>
</g>
<!-- 9 -->
<g id="node10" class="node"><title>9</title>
<path fill="none" stroke="#d88d56" stroke-width="2" stroke-dasharray="5,2" d="M223.5,-108C223.5,-108 116.5,-108 116.5,-108 110.5,-108 104.5,-102 104.5,-96 104.5,-96 104.5,-84 104.5,-84 104.5,-78 110.5,-72 116.5,-72 116.5,-72 223.5,-72 223.5,-72 229.5,-72 235.5,-78 235.5,-84 235.5,-84 235.5,-96 235.5,-96 235.5,-102 229.5,-108 223.5,-108"/>
<text text-anchor="middle" x="170" y="-93" font-family="sans" font-size="10.00">cluster_results</text>
<text text-anchor="middle" x="170" y="-82" font-family="sans" font-size="10.00">method: factor_analysis</text>
</g>
<!-- 9&#45;&gt;0 -->
<g id="edge9" class="edge"><title>9&#45;&gt;0</title>
<path fill="none" stroke="grey" stroke-width="2" d="M235.74,-73.4836C238.863,-72.9405 241.961,-72.4413 245,-72 540.112,-29.1473 900.937,-20.9214 1015.94,-19.3605"/>
<polygon fill="grey" stroke="grey" stroke-width="2" points="1016.03,-22.8598 1025.99,-19.233 1015.94,-15.8604 1016.03,-22.8598"/>
</g>
<!-- 10 -->
<g id="node11" class="node"><title>10</title>
<path fill="none" stroke="#d88d56" stroke-width="2" stroke-dasharray="5,2" d="M328,-108C328,-108 266,-108 266,-108 260,-108 254,-102 254,-96 254,-96 254,-84 254,-84 254,-78 260,-72 266,-72 266,-72 328,-72 328,-72 334,-72 340,-78 340,-84 340,-84 340,-96 340,-96 340,-102 334,-108 328,-108"/>
<text text-anchor="middle" x="297" y="-93" font-family="sans" font-size="10.00">cluster_results</text>
<text text-anchor="middle" x="297" y="-82" font-family="sans" font-size="10.00">method: pca</text>
</g>
<!-- 10&#45;&gt;0 -->
<g id="edge10" class="edge"><title>10&#45;&gt;0</title>
<path fill="none" stroke="grey" stroke-width="2" d="M340.204,-74.0133C343.16,-73.255 346.112,-72.5721 349,-72 600.078,-22.2645 909.988,-18.4035 1015.67,-18.6693"/>
<polygon fill="grey" stroke="grey" stroke-width="2" points="1015.82,-22.1698 1025.83,-18.7096 1015.84,-15.1699 1015.82,-22.1698"/>
</g>
<!-- 11 -->
<g id="node12" class="node"><title>11</title>
<path fill="none" stroke="#d88d56" stroke-width="2" stroke-dasharray="5,2" d="M2117,-108C2117,-108 2055,-108 2055,-108 2049,-108 2043,-102 2043,-96 2043,-96 2043,-84 2043,-84 2043,-78 2049,-72 2055,-72 2055,-72 2117,-72 2117,-72 2123,-72 2129,-78 2129,-84 2129,-84 2129,-96 2129,-96 2129,-102 2123,-108 2117,-108"/>
<text text-anchor="middle" x="2086" y="-93" font-family="sans" font-size="10.00">cluster_results</text>
<text text-anchor="middle" x="2086" y="-82" font-family="sans" font-size="10.00">method: tsne</text>
</g>
<!-- 11&#45;&gt;0 -->
<g id="edge11" class="edge"><title>11&#45;&gt;0</title>
<path fill="none" stroke="grey" stroke-width="2" d="M2042.81,-73.9424C2039.85,-73.2012 2036.89,-72.5415 2034,-72 1847.78,-37.1571 1246.05,-22.8754 1090.16,-19.7075"/>
<polygon fill="grey" stroke="grey" stroke-width="2" points="1090.2,-16.2076 1080.13,-19.5066 1090.06,-23.2062 1090.2,-16.2076"/>
</g>
<!-- 12 -->
<g id="node13" class="node"><title>12</title>
<path fill="none" stroke="#d88d56" stroke-width="2" stroke-dasharray="5,2" d="M1610,-108C1610,-108 1548,-108 1548,-108 1542,-108 1536,-102 1536,-96 1536,-96 1536,-84 1536,-84 1536,-78 1542,-72 1548,-72 1548,-72 1610,-72 1610,-72 1616,-72 1622,-78 1622,-84 1622,-84 1622,-96 1622,-96 1622,-102 1616,-108 1610,-108"/>
<text text-anchor="middle" x="1579" y="-93" font-family="sans" font-size="10.00">cluster_results</text>
<text text-anchor="middle" x="1579" y="-82" font-family="sans" font-size="10.00">method: tsne</text>
</g>
<!-- 12&#45;&gt;0 -->
<g id="edge12" class="edge"><title>12&#45;&gt;0</title>
<path fill="none" stroke="grey" stroke-width="2" d="M1535.77,-74.1343C1532.82,-73.3467 1529.88,-72.6243 1527,-72 1366.69,-37.2171 1170.64,-24.529 1090.17,-20.5691"/>
<polygon fill="grey" stroke="grey" stroke-width="2" points="1090.19,-17.0665 1080.04,-20.0873 1089.86,-24.0586 1090.19,-17.0665"/>
</g>
<!-- 13 -->
<g id="node14" class="node"><title>13</title>
<path fill="none" stroke="#d88d56" stroke-width="2" stroke-dasharray="5,2" d="M1759.5,-108C1759.5,-108 1652.5,-108 1652.5,-108 1646.5,-108 1640.5,-102 1640.5,-96 1640.5,-96 1640.5,-84 1640.5,-84 1640.5,-78 1646.5,-72 1652.5,-72 1652.5,-72 1759.5,-72 1759.5,-72 1765.5,-72 1771.5,-78 1771.5,-84 1771.5,-84 1771.5,-96 1771.5,-96 1771.5,-102 1765.5,-108 1759.5,-108"/>
<text text-anchor="middle" x="1706" y="-93" font-family="sans" font-size="10.00">cluster_results</text>
<text text-anchor="middle" x="1706" y="-82" font-family="sans" font-size="10.00">method: factor_analysis</text>
</g>
<!-- 13&#45;&gt;0 -->
<g id="edge13" class="edge"><title>13&#45;&gt;0</title>
<path fill="none" stroke="grey" stroke-width="2" d="M1640.24,-73.5815C1637.13,-73.0121 1634.03,-72.4806 1631,-72 1428.52,-39.9114 1182.82,-25.3523 1090.48,-20.7268"/>
<polygon fill="grey" stroke="grey" stroke-width="2" points="1090.4,-17.219 1080.24,-20.2237 1090.06,-24.2105 1090.4,-17.219"/>
</g>
<!-- 14 -->
<g id="node15" class="node"><title>14</title>
<path fill="none" stroke="#d88d56" stroke-width="2" stroke-dasharray="5,2" d="M894,-108C894,-108 832,-108 832,-108 826,-108 820,-102 820,-96 820,-96 820,-84 820,-84 820,-78 826,-72 832,-72 832,-72 894,-72 894,-72 900,-72 906,-78 906,-84 906,-84 906,-96 906,-96 906,-102 900,-108 894,-108"/>
<text text-anchor="middle" x="863" y="-93" font-family="sans" font-size="10.00">cluster_results</text>
<text text-anchor="middle" x="863" y="-82" font-family="sans" font-size="10.00">method: tsne</text>
</g>
<!-- 14&#45;&gt;0 -->
<g id="edge14" class="edge"><title>14&#45;&gt;0</title>
<path fill="none" stroke="grey" stroke-width="2" d="M906.114,-73.1159C939.309,-60.886 984.697,-44.1642 1016.2,-32.5588"/>
<polygon fill="grey" stroke="grey" stroke-width="2" points="1017.73,-35.7241 1025.9,-28.9828 1015.31,-29.1557 1017.73,-35.7241"/>
</g>
<!-- 15 -->
<g id="node16" class="node"><title>15</title>
<path fill="none" stroke="#d88d56" stroke-width="2" stroke-dasharray="5,2" d="M1402,-108C1402,-108 1340,-108 1340,-108 1334,-108 1328,-102 1328,-96 1328,-96 1328,-84 1328,-84 1328,-78 1334,-72 1340,-72 1340,-72 1402,-72 1402,-72 1408,-72 1414,-78 1414,-84 1414,-84 1414,-96 1414,-96 1414,-102 1408,-108 1402,-108"/>
<text text-anchor="middle" x="1371" y="-93" font-family="sans" font-size="10.00">cluster_results</text>
<text text-anchor="middle" x="1371" y="-82" font-family="sans" font-size="10.00">method: tsne</text>
</g>
<!-- 15&#45;&gt;0 -->
<g id="edge15" class="edge"><title>15&#45;&gt;0</title>
<path fill="none" stroke="grey" stroke-width="2" d="M1327.73,-74.6817C1324.45,-73.7311 1321.18,-72.8252 1318,-72 1237.7,-51.1628 1141.9,-33.8257 1090.33,-25.0943"/>
<polygon fill="grey" stroke="grey" stroke-width="2" points="1090.76,-21.6177 1080.32,-23.4139 1089.6,-28.5211 1090.76,-21.6177"/>
</g>
<!-- 16 -->
<g id="node17" class="node"><title>16</title>
<path fill="none" stroke="#d88d56" stroke-width="2" stroke-dasharray="5,2" d="M581.5,-108C581.5,-108 474.5,-108 474.5,-108 468.5,-108 462.5,-102 462.5,-96 462.5,-96 462.5,-84 462.5,-84 462.5,-78 468.5,-72 474.5,-72 474.5,-72 581.5,-72 581.5,-72 587.5,-72 593.5,-78 593.5,-84 593.5,-84 593.5,-96 593.5,-96 593.5,-102 587.5,-108 581.5,-108"/>
<text text-anchor="middle" x="528" y="-93" font-family="sans" font-size="10.00">cluster_results</text>
<text text-anchor="middle" x="528" y="-82" font-family="sans" font-size="10.00">method: factor_analysis</text>
</g>
<!-- 16&#45;&gt;0 -->
<g id="edge16" class="edge"><title>16&#45;&gt;0</title>
<path fill="none" stroke="grey" stroke-width="2" d="M593.771,-73.6786C596.886,-73.0833 599.974,-72.5197 603,-72 755.167,-45.8687 938.514,-28.6529 1015.79,-22.0418"/>
<polygon fill="grey" stroke="grey" stroke-width="2" points="1016.31,-25.5107 1025.97,-21.1795 1015.72,-18.5356 1016.31,-25.5107"/>
</g>
<!-- 17 -->
<g id="node18" class="node"><title>17</title>
<path fill="none" stroke="#d88d56" stroke-width="2" stroke-dasharray="5,2" d="M1043.5,-108C1043.5,-108 936.5,-108 936.5,-108 930.5,-108 924.5,-102 924.5,-96 924.5,-96 924.5,-84 924.5,-84 924.5,-78 930.5,-72 936.5,-72 936.5,-72 1043.5,-72 1043.5,-72 1049.5,-72 1055.5,-78 1055.5,-84 1055.5,-84 1055.5,-96 1055.5,-96 1055.5,-102 1049.5,-108 1043.5,-108"/>
<text text-anchor="middle" x="990" y="-93" font-family="sans" font-size="10.00">cluster_results</text>
<text text-anchor="middle" x="990" y="-82" font-family="sans" font-size="10.00">method: factor_analysis</text>
</g>
<!-- 17&#45;&gt;0 -->
<g id="edge17" class="edge"><title>17&#45;&gt;0</title>
<path fill="none" stroke="grey" stroke-width="2" d="M1005.57,-71.6966C1013.2,-63.2198 1022.52,-52.8636 1030.88,-43.5826"/>
<polygon fill="grey" stroke="grey" stroke-width="2" points="1033.52,-45.8787 1037.61,-36.1043 1028.31,-41.1959 1033.52,-45.8787"/>
</g>
<!-- 18 -->
<g id="node19" class="node"><title>18</title>
<path fill="none" stroke="#d88d56" stroke-width="2" stroke-dasharray="5,2" d="M686,-108C686,-108 624,-108 624,-108 618,-108 612,-102 612,-96 612,-96 612,-84 612,-84 612,-78 618,-72 624,-72 624,-72 686,-72 686,-72 692,-72 698,-78 698,-84 698,-84 698,-96 698,-96 698,-102 692,-108 686,-108"/>
<text text-anchor="middle" x="655" y="-93" font-family="sans" font-size="10.00">cluster_results</text>
<text text-anchor="middle" x="655" y="-82" font-family="sans" font-size="10.00">method: pca</text>
</g>
<!-- 18&#45;&gt;0 -->
<g id="edge18" class="edge"><title>18&#45;&gt;0</title>
<path fill="none" stroke="grey" stroke-width="2" d="M698.26,-74.2695C701.203,-73.4493 704.136,-72.6827 707,-72 817.874,-45.5733 952.009,-29.4205 1015.81,-22.6725"/>
<polygon fill="grey" stroke="grey" stroke-width="2" points="1016.21,-26.1497 1025.79,-21.6328 1015.48,-19.1874 1016.21,-26.1497"/>
</g>
<!-- 19 -->
<g id="node20" class="node"><title>19</title>
<path fill="none" stroke="#d8cb56" stroke-width="2" stroke-dasharray="5,2" d="M82,-180C82,-180 52,-180 52,-180 46,-180 40,-174 40,-168 40,-168 40,-156 40,-156 40,-150 46,-144 52,-144 52,-144 82,-144 82,-144 88,-144 94,-150 94,-156 94,-156 94,-168 94,-168 94,-174 88,-180 82,-180"/>
<text text-anchor="middle" x="67" y="-159.5" font-family="sans" font-size="10.00">tsne</text>
</g>
<!-- 19&#45;&gt;1 -->
<g id="edge19" class="edge"><title>19&#45;&gt;1</title>
<path fill="none" stroke="grey" stroke-width="2" d="M61.0674,-143.697C58.3936,-135.898 55.1744,-126.509 52.1986,-117.829"/>
<polygon fill="grey" stroke="grey" stroke-width="2" points="55.4185,-116.429 48.8643,-108.104 48.7968,-118.699 55.4185,-116.429"/>
</g>
<!-- 20 -->
<g id="node21" class="node"><title>20</title>
<path fill="none" stroke="#d8cb56" stroke-width="2" stroke-dasharray="5,2" d="M444,-180C444,-180 414,-180 414,-180 408,-180 402,-174 402,-168 402,-168 402,-156 402,-156 402,-150 408,-144 414,-144 414,-144 444,-144 444,-144 450,-144 456,-150 456,-156 456,-156 456,-168 456,-168 456,-174 450,-180 444,-180"/>
<text text-anchor="middle" x="429" y="-159.5" font-family="sans" font-size="10.00">tsne</text>
</g>
<!-- 20&#45;&gt;2 -->
<g id="edge20" class="edge"><title>20&#45;&gt;2</title>
<path fill="none" stroke="grey" stroke-width="2" d="M422.079,-143.697C418.925,-135.813 415.122,-126.304 411.619,-117.546"/>
<polygon fill="grey" stroke="grey" stroke-width="2" points="414.805,-116.089 407.842,-108.104 408.306,-118.689 414.805,-116.089"/>
</g>
<!-- 21 -->
<g id="node22" class="node"><title>21</title>
<path fill="none" stroke="#afd856" stroke-width="2" stroke-dasharray="5,2" d="M794,-180C794,-180 764,-180 764,-180 758,-180 752,-174 752,-168 752,-168 752,-156 752,-156 752,-150 758,-144 764,-144 764,-144 794,-144 794,-144 800,-144 806,-150 806,-156 806,-156 806,-168 806,-168 806,-174 800,-180 794,-180"/>
<text text-anchor="middle" x="779" y="-159.5" font-family="sans" font-size="10.00">pca</text>
</g>
<!-- 21&#45;&gt;3 -->
<g id="edge21" class="edge"><title>21&#45;&gt;3</title>
<path fill="none" stroke="grey" stroke-width="2" d="M774.056,-143.697C771.828,-135.898 769.145,-126.509 766.665,-117.829"/>
<polygon fill="grey" stroke="grey" stroke-width="2" points="770,-116.758 763.887,-108.104 763.269,-118.681 770,-116.758"/>
</g>
<!-- 22 -->
<g id="node23" class="node"><title>22</title>
<path fill="none" stroke="#afd856" stroke-width="2" stroke-dasharray="5,2" d="M1141,-180C1141,-180 1111,-180 1111,-180 1105,-180 1099,-174 1099,-168 1099,-168 1099,-156 1099,-156 1099,-150 1105,-144 1111,-144 1111,-144 1141,-144 1141,-144 1147,-144 1153,-150 1153,-156 1153,-156 1153,-168 1153,-168 1153,-174 1147,-180 1141,-180"/>
<text text-anchor="middle" x="1126" y="-159.5" font-family="sans" font-size="10.00">pca</text>
</g>
<!-- 22&#45;&gt;4 -->
<g id="edge22" class="edge"><title>22&#45;&gt;4</title>
<path fill="none" stroke="grey" stroke-width="2" d="M1123.78,-143.697C1122.78,-135.983 1121.59,-126.712 1120.49,-118.112"/>
<polygon fill="grey" stroke="grey" stroke-width="2" points="1123.95,-117.576 1119.2,-108.104 1117,-118.469 1123.95,-117.576"/>
</g>
<!-- 23 -->
<g id="node24" class="node"><title>23</title>
<path fill="none" stroke="#56d8a9" stroke-width="2" stroke-dasharray="5,2" d="M1257,-180C1257,-180 1193,-180 1193,-180 1187,-180 1181,-174 1181,-168 1181,-168 1181,-156 1181,-156 1181,-150 1187,-144 1193,-144 1193,-144 1257,-144 1257,-144 1263,-144 1269,-150 1269,-156 1269,-156 1269,-168 1269,-168 1269,-174 1263,-180 1257,-180"/>
<text text-anchor="middle" x="1225" y="-159.5" font-family="sans" font-size="10.00">factor_analysis</text>
</g>
<!-- 23&#45;&gt;5 -->
<g id="edge23" class="edge"><title>23&#45;&gt;5</title>
<path fill="none" stroke="grey" stroke-width="2" d="M1229.7,-143.697C1231.81,-135.898 1234.36,-126.509 1236.72,-117.829"/>
<polygon fill="grey" stroke="grey" stroke-width="2" points="1240.12,-118.672 1239.36,-108.104 1233.36,-116.838 1240.12,-118.672"/>
</g>
<!-- 24 -->
<g id="node25" class="node"><title>24</title>
<path fill="none" stroke="#afd856" stroke-width="2" stroke-dasharray="5,2" d="M1498,-180C1498,-180 1468,-180 1468,-180 1462,-180 1456,-174 1456,-168 1456,-168 1456,-156 1456,-156 1456,-150 1462,-144 1468,-144 1468,-144 1498,-144 1498,-144 1504,-144 1510,-150 1510,-156 1510,-156 1510,-168 1510,-168 1510,-174 1504,-180 1498,-180"/>
<text text-anchor="middle" x="1483" y="-159.5" font-family="sans" font-size="10.00">pca</text>
</g>
<!-- 24&#45;&gt;6 -->
<g id="edge24" class="edge"><title>24&#45;&gt;6</title>
<path fill="none" stroke="grey" stroke-width="2" d="M1481.02,-143.697C1480.14,-135.983 1479.08,-126.712 1478.1,-118.112"/>
<polygon fill="grey" stroke="grey" stroke-width="2" points="1481.57,-117.642 1476.95,-108.104 1474.61,-118.437 1481.57,-117.642"/>
</g>
<!-- 25 -->
<g id="node26" class="node"><title>25</title>
<path fill="none" stroke="#56d8a9" stroke-width="2" stroke-dasharray="5,2" d="M1896,-180C1896,-180 1832,-180 1832,-180 1826,-180 1820,-174 1820,-168 1820,-168 1820,-156 1820,-156 1820,-150 1826,-144 1832,-144 1832,-144 1896,-144 1896,-144 1902,-144 1908,-150 1908,-156 1908,-156 1908,-168 1908,-168 1908,-174 1902,-180 1896,-180"/>
<text text-anchor="middle" x="1864" y="-159.5" font-family="sans" font-size="10.00">factor_analysis</text>
</g>
<!-- 25&#45;&gt;7 -->
<g id="edge25" class="edge"><title>25&#45;&gt;7</title>
<path fill="none" stroke="grey" stroke-width="2" d="M1861.78,-143.697C1860.78,-135.983 1859.59,-126.712 1858.49,-118.112"/>
<polygon fill="grey" stroke="grey" stroke-width="2" points="1861.95,-117.576 1857.2,-108.104 1855,-118.469 1861.95,-117.576"/>
</g>
<!-- 26 -->
<g id="node27" class="node"><title>26</title>
<path fill="none" stroke="#afd856" stroke-width="2" stroke-dasharray="5,2" d="M1987,-180C1987,-180 1957,-180 1957,-180 1951,-180 1945,-174 1945,-168 1945,-168 1945,-156 1945,-156 1945,-150 1951,-144 1957,-144 1957,-144 1987,-144 1987,-144 1993,-144 1999,-150 1999,-156 1999,-156 1999,-168 1999,-168 1999,-174 1993,-180 1987,-180"/>
<text text-anchor="middle" x="1972" y="-159.5" font-family="sans" font-size="10.00">pca</text>
</g>
<!-- 26&#45;&gt;8 -->
<g id="edge26" class="edge"><title>26&#45;&gt;8</title>
<path fill="none" stroke="grey" stroke-width="2" d="M1974.47,-143.697C1975.57,-135.983 1976.9,-126.712 1978.13,-118.112"/>
<polygon fill="grey" stroke="grey" stroke-width="2" points="1981.61,-118.499 1979.56,-108.104 1974.68,-117.509 1981.61,-118.499"/>
</g>
<!-- 27 -->
<g id="node28" class="node"><title>27</title>
<path fill="none" stroke="#56d8a9" stroke-width="2" stroke-dasharray="5,2" d="M212,-180C212,-180 148,-180 148,-180 142,-180 136,-174 136,-168 136,-168 136,-156 136,-156 136,-150 142,-144 148,-144 148,-144 212,-144 212,-144 218,-144 224,-150 224,-156 224,-156 224,-168 224,-168 224,-174 218,-180 212,-180"/>
<text text-anchor="middle" x="180" y="-159.5" font-family="sans" font-size="10.00">factor_analysis</text>
</g>
<!-- 27&#45;&gt;9 -->
<g id="edge27" class="edge"><title>27&#45;&gt;9</title>
<path fill="none" stroke="grey" stroke-width="2" d="M177.528,-143.697C176.426,-135.983 175.102,-126.712 173.873,-118.112"/>
<polygon fill="grey" stroke="grey" stroke-width="2" points="177.323,-117.509 172.443,-108.104 170.393,-118.499 177.323,-117.509"/>
</g>
<!-- 28 -->
<g id="node29" class="node"><title>28</title>
<path fill="none" stroke="#afd856" stroke-width="2" stroke-dasharray="5,2" d="M303,-180C303,-180 273,-180 273,-180 267,-180 261,-174 261,-168 261,-168 261,-156 261,-156 261,-150 267,-144 273,-144 273,-144 303,-144 303,-144 309,-144 315,-150 315,-156 315,-156 315,-168 315,-168 315,-174 309,-180 303,-180"/>
<text text-anchor="middle" x="288" y="-159.5" font-family="sans" font-size="10.00">pca</text>
</g>
<!-- 28&#45;&gt;10 -->
<g id="edge28" class="edge"><title>28&#45;&gt;10</title>
<path fill="none" stroke="grey" stroke-width="2" d="M290.225,-143.697C291.217,-135.983 292.408,-126.712 293.514,-118.112"/>
<polygon fill="grey" stroke="grey" stroke-width="2" points="296.997,-118.469 294.801,-108.104 290.054,-117.576 296.997,-118.469"/>
</g>
<!-- 29 -->
<g id="node30" class="node"><title>29</title>
<path fill="none" stroke="#d8cb56" stroke-width="2" stroke-dasharray="5,2" d="M2084,-180C2084,-180 2054,-180 2054,-180 2048,-180 2042,-174 2042,-168 2042,-168 2042,-156 2042,-156 2042,-150 2048,-144 2054,-144 2054,-144 2084,-144 2084,-144 2090,-144 2096,-150 2096,-156 2096,-156 2096,-168 2096,-168 2096,-174 2090,-180 2084,-180"/>
<text text-anchor="middle" x="2069" y="-159.5" font-family="sans" font-size="10.00">tsne</text>
</g>
<!-- 29&#45;&gt;11 -->
<g id="edge29" class="edge"><title>29&#45;&gt;11</title>
<path fill="none" stroke="grey" stroke-width="2" d="M2073.2,-143.697C2075.1,-135.898 2077.38,-126.509 2079.48,-117.829"/>
<polygon fill="grey" stroke="grey" stroke-width="2" points="2082.89,-118.648 2081.85,-108.104 2076.08,-116.996 2082.89,-118.648"/>
</g>
<!-- 30 -->
<g id="node31" class="node"><title>30</title>
<path fill="none" stroke="#d8cb56" stroke-width="2" stroke-dasharray="5,2" d="M1578,-180C1578,-180 1548,-180 1548,-180 1542,-180 1536,-174 1536,-168 1536,-168 1536,-156 1536,-156 1536,-150 1542,-144 1548,-144 1548,-144 1578,-144 1578,-144 1584,-144 1590,-150 1590,-156 1590,-156 1590,-168 1590,-168 1590,-174 1584,-180 1578,-180"/>
<text text-anchor="middle" x="1563" y="-159.5" font-family="sans" font-size="10.00">tsne</text>
</g>
<!-- 30&#45;&gt;12 -->
<g id="edge30" class="edge"><title>30&#45;&gt;12</title>
<path fill="none" stroke="grey" stroke-width="2" d="M1566.96,-143.697C1568.72,-135.983 1570.84,-126.712 1572.8,-118.112"/>
<polygon fill="grey" stroke="grey" stroke-width="2" points="1576.27,-118.633 1575.09,-108.104 1569.45,-117.073 1576.27,-118.633"/>
</g>
<!-- 31 -->
<g id="node32" class="node"><title>31</title>
<path fill="none" stroke="#56d8a9" stroke-width="2" stroke-dasharray="5,2" d="M1711,-180C1711,-180 1647,-180 1647,-180 1641,-180 1635,-174 1635,-168 1635,-168 1635,-156 1635,-156 1635,-150 1641,-144 1647,-144 1647,-144 1711,-144 1711,-144 1717,-144 1723,-150 1723,-156 1723,-156 1723,-168 1723,-168 1723,-174 1717,-180 1711,-180"/>
<text text-anchor="middle" x="1679" y="-159.5" font-family="sans" font-size="10.00">factor_analysis</text>
</g>
<!-- 31&#45;&gt;13 -->
<g id="edge31" class="edge"><title>31&#45;&gt;13</title>
<path fill="none" stroke="grey" stroke-width="2" d="M1685.67,-143.697C1688.71,-135.813 1692.38,-126.304 1695.76,-117.546"/>
<polygon fill="grey" stroke="grey" stroke-width="2" points="1699.07,-118.694 1699.4,-108.104 1692.54,-116.175 1699.07,-118.694"/>
</g>
<!-- 32 -->
<g id="node33" class="node"><title>32</title>
<path fill="none" stroke="#d8cb56" stroke-width="2" stroke-dasharray="5,2" d="M887,-180C887,-180 857,-180 857,-180 851,-180 845,-174 845,-168 845,-168 845,-156 845,-156 845,-150 851,-144 857,-144 857,-144 887,-144 887,-144 893,-144 899,-150 899,-156 899,-156 899,-168 899,-168 899,-174 893,-180 887,-180"/>
<text text-anchor="middle" x="872" y="-159.5" font-family="sans" font-size="10.00">tsne</text>
</g>
<!-- 32&#45;&gt;14 -->
<g id="edge32" class="edge"><title>32&#45;&gt;14</title>
<path fill="none" stroke="grey" stroke-width="2" d="M869.775,-143.697C868.783,-135.983 867.592,-126.712 866.486,-118.112"/>
<polygon fill="grey" stroke="grey" stroke-width="2" points="869.946,-117.576 865.199,-108.104 863.003,-118.469 869.946,-117.576"/>
</g>
<!-- 33 -->
<g id="node34" class="node"><title>33</title>
<path fill="none" stroke="#d8cb56" stroke-width="2" stroke-dasharray="5,2" d="M1358,-180C1358,-180 1328,-180 1328,-180 1322,-180 1316,-174 1316,-168 1316,-168 1316,-156 1316,-156 1316,-150 1322,-144 1328,-144 1328,-144 1358,-144 1358,-144 1364,-144 1370,-150 1370,-156 1370,-156 1370,-168 1370,-168 1370,-174 1364,-180 1358,-180"/>
<text text-anchor="middle" x="1343" y="-159.5" font-family="sans" font-size="10.00">tsne</text>
</g>
<!-- 33&#45;&gt;15 -->
<g id="edge33" class="edge"><title>33&#45;&gt;15</title>
<path fill="none" stroke="grey" stroke-width="2" d="M1349.92,-143.697C1353.07,-135.813 1356.88,-126.304 1360.38,-117.546"/>
<polygon fill="grey" stroke="grey" stroke-width="2" points="1363.69,-118.689 1364.16,-108.104 1357.19,-116.089 1363.69,-118.689"/>
</g>
<!-- 34 -->
<g id="node35" class="node"><title>34</title>
<path fill="none" stroke="#56d8a9" stroke-width="2" stroke-dasharray="5,2" d="M569,-180C569,-180 505,-180 505,-180 499,-180 493,-174 493,-168 493,-168 493,-156 493,-156 493,-150 499,-144 505,-144 505,-144 569,-144 569,-144 575,-144 581,-150 581,-156 581,-156 581,-168 581,-168 581,-174 575,-180 569,-180"/>
<text text-anchor="middle" x="537" y="-159.5" font-family="sans" font-size="10.00">factor_analysis</text>
</g>
<!-- 34&#45;&gt;16 -->
<g id="edge34" class="edge"><title>34&#45;&gt;16</title>
<path fill="none" stroke="grey" stroke-width="2" d="M534.775,-143.697C533.783,-135.983 532.592,-126.712 531.486,-118.112"/>
<polygon fill="grey" stroke="grey" stroke-width="2" points="534.946,-117.576 530.199,-108.104 528.003,-118.469 534.946,-117.576"/>
</g>
<!-- 35 -->
<g id="node36" class="node"><title>35</title>
<path fill="none" stroke="#56d8a9" stroke-width="2" stroke-dasharray="5,2" d="M1003,-180C1003,-180 939,-180 939,-180 933,-180 927,-174 927,-168 927,-168 927,-156 927,-156 927,-150 933,-144 939,-144 939,-144 1003,-144 1003,-144 1009,-144 1015,-150 1015,-156 1015,-156 1015,-168 1015,-168 1015,-174 1009,-180 1003,-180"/>
<text text-anchor="middle" x="971" y="-159.5" font-family="sans" font-size="10.00">factor_analysis</text>
</g>
<!-- 35&#45;&gt;17 -->
<g id="edge35" class="edge"><title>35&#45;&gt;17</title>
<path fill="none" stroke="grey" stroke-width="2" d="M975.697,-143.697C977.813,-135.898 980.362,-126.509 982.718,-117.829"/>
<polygon fill="grey" stroke="grey" stroke-width="2" points="986.116,-118.672 985.357,-108.104 979.36,-116.838 986.116,-118.672"/>
</g>
<!-- 36 -->
<g id="node37" class="node"><title>36</title>
<path fill="none" stroke="#afd856" stroke-width="2" stroke-dasharray="5,2" d="M651,-180C651,-180 621,-180 621,-180 615,-180 609,-174 609,-168 609,-168 609,-156 609,-156 609,-150 615,-144 621,-144 621,-144 651,-144 651,-144 657,-144 663,-150 663,-156 663,-156 663,-168 663,-168 663,-174 657,-180 651,-180"/>
<text text-anchor="middle" x="636" y="-159.5" font-family="sans" font-size="10.00">pca</text>
</g>
<!-- 36&#45;&gt;18 -->
<g id="edge36" class="edge"><title>36&#45;&gt;18</title>
<path fill="none" stroke="grey" stroke-width="2" d="M640.697,-143.697C642.813,-135.898 645.362,-126.509 647.718,-117.829"/>
<polygon fill="grey" stroke="grey" stroke-width="2" points="651.116,-118.672 650.357,-108.104 644.36,-116.838 651.116,-118.672"/>
</g>
<!-- 37 -->
<g id="node38" class="node"><title>37</title>
<path fill="none" stroke="#56c9d8" stroke-width="2" stroke-dasharray="5,2" d="M264.5,-252C264.5,-252 203.5,-252 203.5,-252 197.5,-252 191.5,-246 191.5,-240 191.5,-240 191.5,-228 191.5,-228 191.5,-222 197.5,-216 203.5,-216 203.5,-216 264.5,-216 264.5,-216 270.5,-216 276.5,-222 276.5,-228 276.5,-228 276.5,-240 276.5,-240 276.5,-246 270.5,-252 264.5,-252"/>
<text text-anchor="middle" x="234" y="-237" font-family="sans" font-size="10.00">simulate_data</text>
<text text-anchor="middle" x="234" y="-226" font-family="sans" font-size="10.00">loc: 1.5</text>
</g>
<!-- 37&#45;&gt;19 -->
<g id="edge37" class="edge"><title>37&#45;&gt;19</title>
<path fill="none" stroke="grey" stroke-width="2" d="M193.147,-215.876C165.713,-204.377 129.883,-189.358 103.422,-178.267"/>
<polygon fill="grey" stroke="grey" stroke-width="2" points="104.705,-175.01 94.1296,-174.372 101.999,-181.465 104.705,-175.01"/>
</g>
<!-- 37&#45;&gt;27 -->
<g id="edge45" class="edge"><title>37&#45;&gt;27</title>
<path fill="none" stroke="grey" stroke-width="2" d="M220.652,-215.697C214.243,-207.389 206.442,-197.277 199.394,-188.141"/>
<polygon fill="grey" stroke="grey" stroke-width="2" points="202.074,-185.884 193.195,-180.104 196.532,-190.16 202.074,-185.884"/>
</g>
<!-- 37&#45;&gt;28 -->
<g id="edge46" class="edge"><title>37&#45;&gt;28</title>
<path fill="none" stroke="grey" stroke-width="2" d="M247.348,-215.697C253.757,-207.389 261.558,-197.277 268.606,-188.141"/>
<polygon fill="grey" stroke="grey" stroke-width="2" points="271.468,-190.16 274.805,-180.104 265.926,-185.884 271.468,-190.16"/>
</g>
<!-- 38 -->
<g id="node39" class="node"><title>38</title>
<path fill="none" stroke="#56c9d8" stroke-width="2" stroke-dasharray="5,2" d="M603.5,-252C603.5,-252 542.5,-252 542.5,-252 536.5,-252 530.5,-246 530.5,-240 530.5,-240 530.5,-228 530.5,-228 530.5,-222 536.5,-216 542.5,-216 542.5,-216 603.5,-216 603.5,-216 609.5,-216 615.5,-222 615.5,-228 615.5,-228 615.5,-240 615.5,-240 615.5,-246 609.5,-252 603.5,-252"/>
<text text-anchor="middle" x="573" y="-237" font-family="sans" font-size="10.00">simulate_data</text>
<text text-anchor="middle" x="573" y="-226" font-family="sans" font-size="10.00">loc: 0.5</text>
</g>
<!-- 38&#45;&gt;20 -->
<g id="edge38" class="edge"><title>38&#45;&gt;20</title>
<path fill="none" stroke="grey" stroke-width="2" d="M537.774,-215.876C515.771,-205.18 487.506,-191.44 465.303,-180.647"/>
<polygon fill="grey" stroke="grey" stroke-width="2" points="466.719,-177.444 456.195,-176.22 463.659,-183.74 466.719,-177.444"/>
</g>
<!-- 38&#45;&gt;34 -->
<g id="edge52" class="edge"><title>38&#45;&gt;34</title>
<path fill="none" stroke="grey" stroke-width="2" d="M564.101,-215.697C560.003,-207.728 555.051,-198.1 550.507,-189.264"/>
<polygon fill="grey" stroke="grey" stroke-width="2" points="553.483,-187.396 545.797,-180.104 547.258,-190.598 553.483,-187.396"/>
</g>
<!-- 38&#45;&gt;36 -->
<g id="edge54" class="edge"><title>38&#45;&gt;36</title>
<path fill="none" stroke="grey" stroke-width="2" d="M588.573,-215.697C596.202,-207.22 605.523,-196.864 613.876,-187.583"/>
<polygon fill="grey" stroke="grey" stroke-width="2" points="616.518,-189.879 620.606,-180.104 611.315,-185.196 616.518,-189.879"/>
</g>
<!-- 39 -->
<g id="node40" class="node"><title>39</title>
<path fill="none" stroke="#56c9d8" stroke-width="2" stroke-dasharray="5,2" d="M965.5,-252C965.5,-252 904.5,-252 904.5,-252 898.5,-252 892.5,-246 892.5,-240 892.5,-240 892.5,-228 892.5,-228 892.5,-222 898.5,-216 904.5,-216 904.5,-216 965.5,-216 965.5,-216 971.5,-216 977.5,-222 977.5,-228 977.5,-228 977.5,-240 977.5,-240 977.5,-246 971.5,-252 965.5,-252"/>
<text text-anchor="middle" x="935" y="-237" font-family="sans" font-size="10.00">simulate_data</text>
<text text-anchor="middle" x="935" y="-226" font-family="sans" font-size="10.00">loc: 1</text>
</g>
<!-- 39&#45;&gt;21 -->
<g id="edge39" class="edge"><title>39&#45;&gt;21</title>
<path fill="none" stroke="grey" stroke-width="2" d="M896.838,-215.876C871.993,-204.728 839.776,-190.272 815.31,-179.293"/>
<polygon fill="grey" stroke="grey" stroke-width="2" points="816.568,-176.021 806.012,-175.121 813.702,-182.408 816.568,-176.021"/>
</g>
<!-- 39&#45;&gt;32 -->
<g id="edge50" class="edge"><title>39&#45;&gt;32</title>
<path fill="none" stroke="grey" stroke-width="2" d="M919.427,-215.697C911.798,-207.22 902.477,-196.864 894.124,-187.583"/>
<polygon fill="grey" stroke="grey" stroke-width="2" points="896.685,-185.196 887.394,-180.104 891.482,-189.879 896.685,-185.196"/>
</g>
<!-- 39&#45;&gt;35 -->
<g id="edge53" class="edge"><title>39&#45;&gt;35</title>
<path fill="none" stroke="grey" stroke-width="2" d="M943.899,-215.697C947.997,-207.728 952.949,-198.1 957.493,-189.264"/>
<polygon fill="grey" stroke="grey" stroke-width="2" points="960.742,-190.598 962.203,-180.104 954.517,-187.396 960.742,-190.598"/>
</g>
<!-- 40 -->
<g id="node41" class="node"><title>40</title>
<path fill="none" stroke="#56c9d8" stroke-width="2" stroke-dasharray="5,2" d="M1219.5,-252C1219.5,-252 1158.5,-252 1158.5,-252 1152.5,-252 1146.5,-246 1146.5,-240 1146.5,-240 1146.5,-228 1146.5,-228 1146.5,-222 1152.5,-216 1158.5,-216 1158.5,-216 1219.5,-216 1219.5,-216 1225.5,-216 1231.5,-222 1231.5,-228 1231.5,-228 1231.5,-240 1231.5,-240 1231.5,-246 1225.5,-252 1219.5,-252"/>
<text text-anchor="middle" x="1189" y="-237" font-family="sans" font-size="10.00">simulate_data</text>
<text text-anchor="middle" x="1189" y="-226" font-family="sans" font-size="10.00">loc: 2</text>
</g>
<!-- 40&#45;&gt;22 -->
<g id="edge40" class="edge"><title>40&#45;&gt;22</title>
<path fill="none" stroke="grey" stroke-width="2" d="M1173.43,-215.697C1165.8,-207.22 1156.48,-196.864 1148.12,-187.583"/>
<polygon fill="grey" stroke="grey" stroke-width="2" points="1150.69,-185.196 1141.39,-180.104 1145.48,-189.879 1150.69,-185.196"/>
</g>
<!-- 40&#45;&gt;23 -->
<g id="edge41" class="edge"><title>40&#45;&gt;23</title>
<path fill="none" stroke="grey" stroke-width="2" d="M1197.9,-215.697C1202,-207.728 1206.95,-198.1 1211.49,-189.264"/>
<polygon fill="grey" stroke="grey" stroke-width="2" points="1214.74,-190.598 1216.2,-180.104 1208.52,-187.396 1214.74,-190.598"/>
</g>
<!-- 40&#45;&gt;33 -->
<g id="edge51" class="edge"><title>40&#45;&gt;33</title>
<path fill="none" stroke="grey" stroke-width="2" d="M1226.67,-215.876C1251.04,-204.799 1282.6,-190.457 1306.69,-179.504"/>
<polygon fill="grey" stroke="grey" stroke-width="2" points="1308.2,-182.662 1315.86,-175.338 1305.3,-176.29 1308.2,-182.662"/>
</g>
<!-- 41 -->
<g id="node42" class="node"><title>41</title>
<path fill="none" stroke="#56c9d8" stroke-width="2" stroke-dasharray="5,2" d="M1565.5,-252C1565.5,-252 1504.5,-252 1504.5,-252 1498.5,-252 1492.5,-246 1492.5,-240 1492.5,-240 1492.5,-228 1492.5,-228 1492.5,-222 1498.5,-216 1504.5,-216 1504.5,-216 1565.5,-216 1565.5,-216 1571.5,-216 1577.5,-222 1577.5,-228 1577.5,-228 1577.5,-240 1577.5,-240 1577.5,-246 1571.5,-252 1565.5,-252"/>
<text text-anchor="middle" x="1535" y="-237" font-family="sans" font-size="10.00">simulate_data</text>
<text text-anchor="middle" x="1535" y="-226" font-family="sans" font-size="10.00">loc: 3</text>
</g>
<!-- 41&#45;&gt;24 -->
<g id="edge42" class="edge"><title>41&#45;&gt;24</title>
<path fill="none" stroke="grey" stroke-width="2" d="M1522.15,-215.697C1515.97,-207.389 1508.46,-197.277 1501.68,-188.141"/>
<polygon fill="grey" stroke="grey" stroke-width="2" points="1504.48,-186.045 1495.71,-180.104 1498.86,-190.219 1504.48,-186.045"/>
</g>
<!-- 41&#45;&gt;30 -->
<g id="edge48" class="edge"><title>41&#45;&gt;30</title>
<path fill="none" stroke="grey" stroke-width="2" d="M1541.92,-215.697C1545.07,-207.813 1548.88,-198.304 1552.38,-189.546"/>
<polygon fill="grey" stroke="grey" stroke-width="2" points="1555.69,-190.689 1556.16,-180.104 1549.19,-188.089 1555.69,-190.689"/>
</g>
<!-- 41&#45;&gt;31 -->
<g id="edge49" class="edge"><title>41&#45;&gt;31</title>
<path fill="none" stroke="grey" stroke-width="2" d="M1570.23,-215.876C1589.58,-206.469 1613.77,-194.708 1634.43,-184.667"/>
<polygon fill="grey" stroke="grey" stroke-width="2" points="1636.17,-187.71 1643.64,-180.19 1633.11,-181.414 1636.17,-187.71"/>
</g>
<!-- 42 -->
<g id="node43" class="node"><title>42</title>
<path fill="none" stroke="#56c9d8" stroke-width="2" stroke-dasharray="5,2" d="M1938.5,-252C1938.5,-252 1877.5,-252 1877.5,-252 1871.5,-252 1865.5,-246 1865.5,-240 1865.5,-240 1865.5,-228 1865.5,-228 1865.5,-222 1871.5,-216 1877.5,-216 1877.5,-216 1938.5,-216 1938.5,-216 1944.5,-216 1950.5,-222 1950.5,-228 1950.5,-228 1950.5,-240 1950.5,-240 1950.5,-246 1944.5,-252 1938.5,-252"/>
<text text-anchor="middle" x="1908" y="-237" font-family="sans" font-size="10.00">simulate_data</text>
<text text-anchor="middle" x="1908" y="-226" font-family="sans" font-size="10.00">loc: 2.5</text>
</g>
<!-- 42&#45;&gt;25 -->
<g id="edge43" class="edge"><title>42&#45;&gt;25</title>
<path fill="none" stroke="grey" stroke-width="2" d="M1897.12,-215.697C1892.01,-207.559 1885.8,-197.689 1880.16,-188.701"/>
<polygon fill="grey" stroke="grey" stroke-width="2" points="1883.04,-186.708 1874.75,-180.104 1877.11,-190.433 1883.04,-186.708"/>
</g>
<!-- 42&#45;&gt;26 -->
<g id="edge44" class="edge"><title>42&#45;&gt;26</title>
<path fill="none" stroke="grey" stroke-width="2" d="M1923.82,-215.697C1931.57,-207.22 1941.04,-196.864 1949.52,-187.583"/>
<polygon fill="grey" stroke="grey" stroke-width="2" points="1952.2,-189.846 1956.36,-180.104 1947.03,-185.123 1952.2,-189.846"/>
</g>
<!-- 42&#45;&gt;29 -->
<g id="edge47" class="edge"><title>42&#45;&gt;29</title>
<path fill="none" stroke="grey" stroke-width="2" d="M1947.39,-215.876C1973.3,-204.607 2007,-189.957 2032.35,-178.936"/>
<polygon fill="grey" stroke="grey" stroke-width="2" points="2033.84,-182.102 2041.62,-174.905 2031.05,-175.682 2033.84,-182.102"/>
</g>
<!-- 43 -->
<g id="node44" class="node"><title>43</title>
<path fill="none" stroke="#70d856" stroke-width="2" stroke-dasharray="5,2" d="M1108,-324C1108,-324 1016,-324 1016,-324 1010,-324 1004,-318 1004,-312 1004,-312 1004,-300 1004,-300 1004,-294 1010,-288 1016,-288 1016,-288 1108,-288 1108,-288 1114,-288 1120,-294 1120,-300 1120,-300 1120,-312 1120,-312 1120,-318 1114,-324 1108,-324"/>
<text text-anchor="middle" x="1062" y="-303.5" font-family="sans" font-size="10.00">preprocess_zheng17</text>
</g>
<!-- 43&#45;&gt;37 -->
<g id="edge55" class="edge"><title>43&#45;&gt;37</title>
<path fill="none" stroke="grey" stroke-width="2" d="M1003.78,-300.078C849.92,-287.071 434.269,-251.931 286.786,-239.463"/>
<polygon fill="grey" stroke="grey" stroke-width="2" points="286.898,-235.96 276.638,-238.605 286.308,-242.935 286.898,-235.96"/>
</g>
<!-- 43&#45;&gt;38 -->
<g id="edge56" class="edge"><title>43&#45;&gt;38</title>
<path fill="none" stroke="grey" stroke-width="2" d="M1003.99,-296.695C908.03,-282.959 717.731,-255.718 625.521,-242.518"/>
<polygon fill="grey" stroke="grey" stroke-width="2" points="625.97,-239.047 615.575,-241.095 624.978,-245.976 625.97,-239.047"/>
</g>
<!-- 43&#45;&gt;39 -->
<g id="edge57" class="edge"><title>43&#45;&gt;39</title>
<path fill="none" stroke="grey" stroke-width="2" d="M1030.93,-287.876C1014.17,-278.639 993.294,-267.131 975.298,-257.212"/>
<polygon fill="grey" stroke="grey" stroke-width="2" points="976.634,-253.952 966.187,-252.19 973.255,-260.082 976.634,-253.952"/>
</g>
<!-- 43&#45;&gt;40 -->
<g id="edge58" class="edge"><title>43&#45;&gt;40</title>
<path fill="none" stroke="grey" stroke-width="2" d="M1093.07,-287.876C1109.83,-278.639 1130.71,-267.131 1148.7,-257.212"/>
<polygon fill="grey" stroke="grey" stroke-width="2" points="1150.74,-260.082 1157.81,-252.19 1147.37,-253.952 1150.74,-260.082"/>
</g>
<!-- 43&#45;&gt;41 -->
<g id="edge59" class="edge"><title>43&#45;&gt;41</title>
<path fill="none" stroke="grey" stroke-width="2" d="M1120.47,-296.346C1213.32,-282.606 1393.05,-256.008 1482.2,-242.814"/>
<polygon fill="grey" stroke="grey" stroke-width="2" points="1482.98,-246.237 1492.35,-241.311 1481.95,-239.313 1482.98,-246.237"/>
</g>
<!-- 43&#45;&gt;42 -->
<g id="edge60" class="edge"><title>43&#45;&gt;42</title>
<path fill="none" stroke="grey" stroke-width="2" d="M1120.15,-300.189C1276.55,-287.248 1704.49,-251.839 1854.88,-239.395"/>
<polygon fill="grey" stroke="grey" stroke-width="2" points="1855.55,-242.852 1865.23,-238.539 1854.97,-235.876 1855.55,-242.852"/>
</g>
<!-- 44 -->
<g id="node45" class="node"><title>44</title>
<path fill="none" stroke="#5692d8" stroke-width="2" stroke-dasharray="5,2" d="M1088.5,-396C1088.5,-396 1035.5,-396 1035.5,-396 1029.5,-396 1023.5,-390 1023.5,-384 1023.5,-384 1023.5,-372 1023.5,-372 1023.5,-366 1029.5,-360 1035.5,-360 1035.5,-360 1088.5,-360 1088.5,-360 1094.5,-360 1100.5,-366 1100.5,-372 1100.5,-372 1100.5,-384 1100.5,-384 1100.5,-390 1094.5,-396 1088.5,-396"/>
<text text-anchor="middle" x="1062" y="-375.5" font-family="sans" font-size="10.00">create_loom</text>
</g>
<!-- 44&#45;&gt;43 -->
<g id="edge61" class="edge"><title>44&#45;&gt;43</title>
<path fill="none" stroke="grey" stroke-width="2" d="M1062,-359.697C1062,-351.983 1062,-342.712 1062,-334.112"/>
<polygon fill="grey" stroke="grey" stroke-width="2" points="1065.5,-334.104 1062,-324.104 1058.5,-334.104 1065.5,-334.104"/>
</g>
</g>
</svg>
