<?xml version="1.0" encoding="UTF-8" standalone="no"?>
<!DOCTYPE svg PUBLIC "-//W3C//DTD SVG 1.1//EN"
 "http://www.w3.org/Graphics/SVG/1.1/DTD/svg11.dtd">
<!-- Generated by graphviz version 2.40.1 (20161225.0304)
 -->
<!-- Title: snakemake_dag Pages: 1 -->
<svg width="97pt" height="404pt"
 viewBox="0.00 0.00 97.00 404.00" xmlns="http://www.w3.org/2000/svg" xmlns:xlink="http://www.w3.org/1999/xlink">
<g id="graph0" class="graph" transform="scale(1 1) rotate(0) translate(4 400)">
<title>snakemake_dag</title>
<polygon fill="#ffffff" stroke="transparent" points="-4,4 -4,-400 93,-400 93,4 -4,4"/>
<!-- 0 -->
<g id="node1" class="node">
<title>0</title>
<path fill="none" stroke="#56d8a9" stroke-width="2" d="M59.5,-36C59.5,-36 29.5,-36 29.5,-36 23.5,-36 17.5,-30 17.5,-24 17.5,-24 17.5,-12 17.5,-12 17.5,-6 23.5,0 29.5,0 29.5,0 59.5,0 59.5,0 65.5,0 71.5,-6 71.5,-12 71.5,-12 71.5,-24 71.5,-24 71.5,-30 65.5,-36 59.5,-36"/>
<text text-anchor="middle" x="44.5" y="-15.5" font-family="sans" font-size="10.00" fill="#000000">all</text>
</g>
<!-- 1 -->
<g id="node2" class="node">
<title>1</title>
<path fill="none" stroke="#afd856" stroke-width="2" stroke-dasharray="5,2" d="M61,-108C61,-108 28,-108 28,-108 22,-108 16,-102 16,-96 16,-96 16,-84 16,-84 16,-78 22,-72 28,-72 28,-72 61,-72 61,-72 67,-72 73,-78 73,-84 73,-84 73,-96 73,-96 73,-102 67,-108 61,-108"/>
<text text-anchor="middle" x="44.5" y="-87.5" font-family="sans" font-size="10.00" fill="#000000">phenograph</text>
</g>
<!-- 1&#45;&gt;0 -->
<g id="edge1" class="edge">
<title>1&#45;&gt;0</title>
<path fill="none" stroke="#c0c0c0" stroke-width="2" d="M44.5,-71.8314C44.5,-64.131 44.5,-54.9743 44.5,-46.4166"/>
<polygon fill="#c0c0c0" stroke="#c0c0c0" stroke-width="2" points="48.0001,-46.4132 44.5,-36.4133 41.0001,-46.4133 48.0001,-46.4132"/>
</g>
<!-- 2 -->
<g id="node3" class="node">
<title>2</title>
<path fill="none" stroke="#56a9d8" stroke-width="2" stroke-dasharray="5,2" d="M59.5,-180C59.5,-180 29.5,-180 29.5,-180 23.5,-180 17.5,-174 17.5,-168 17.5,-168 17.5,-156 17.5,-156 17.5,-150 23.5,-144 29.5,-144 29.5,-144 59.5,-144 59.5,-144 65.5,-144 71.5,-150 71.5,-156 71.5,-156 71.5,-168 71.5,-168 71.5,-174 65.5,-180 59.5,-180"/>
<text text-anchor="middle" x="44.5" y="-159.5" font-family="sans" font-size="10.00" fill="#000000">preprocess</text>
</g>
<!-- 2&#45;&gt;1 -->
<g id="edge2" class="edge">
<title>2&#45;&gt;1</title>
<path fill="none" stroke="#c0c0c0" stroke-width="2" d="M44.5,-143.8314C44.5,-136.131 44.5,-126.9743 44.5,-118.4166"/>
<polygon fill="#c0c0c0" stroke="#c0c0c0" stroke-width="2" points="48.0001,-118.4132 44.5,-108.4133 41.0001,-118.4133 48.0001,-118.4132"/>
</g>
<!-- 3 -->
<g id="node4" class="node">
<title>3</title>
<path fill="none" stroke="#d8ac56" stroke-width="2" stroke-dasharray="5,2" d="M72.5,-252C72.5,-252 16.5,-252 16.5,-252 10.5,-252 4.5,-246 4.5,-240 4.5,-240 4.5,-228 4.5,-228 4.5,-222 10.5,-216 16.5,-216 16.5,-216 72.5,-216 72.5,-216 78.5,-216 84.5,-222 84.5,-228 84.5,-228 84.5,-240 84.5,-240 84.5,-246 78.5,-252 72.5,-252"/>
<text text-anchor="middle" x="44.5" y="-231.5" font-family="sans" font-size="10.00" fill="#000000">cell_cycle_removal</text>
</g>
<!-- 3&#45;&gt;2 -->
<g id="edge3" class="edge">
<title>3&#45;&gt;2</title>
<path fill="none" stroke="#c0c0c0" stroke-width="2" d="M44.5,-215.8314C44.5,-208.131 44.5,-198.9743 44.5,-190.4166"/>
<polygon fill="#c0c0c0" stroke="#c0c0c0" stroke-width="2" points="48.0001,-190.4132 44.5,-180.4133 41.0001,-190.4133 48.0001,-190.4132"/>
</g>
<!-- 4 -->
<g id="node5" class="node">
<title>4</title>
<path fill="none" stroke="#59d856" stroke-width="2" stroke-dasharray="5,2" d="M74.5,-324C74.5,-324 14.5,-324 14.5,-324 8.5,-324 2.5,-318 2.5,-312 2.5,-312 2.5,-300 2.5,-300 2.5,-294 8.5,-288 14.5,-288 14.5,-288 74.5,-288 74.5,-288 80.5,-288 86.5,-294 86.5,-300 86.5,-300 86.5,-312 86.5,-312 86.5,-318 80.5,-324 74.5,-324"/>
<text text-anchor="middle" x="44.5" y="-303.5" font-family="sans" font-size="10.00" fill="#000000">filter_out_noncoding</text>
</g>
<!-- 4&#45;&gt;3 -->
<g id="edge4" class="edge">
<title>4&#45;&gt;3</title>
<path fill="none" stroke="#c0c0c0" stroke-width="2" d="M44.5,-287.8314C44.5,-280.131 44.5,-270.9743 44.5,-262.4166"/>
<polygon fill="#c0c0c0" stroke="#c0c0c0" stroke-width="2" points="48.0001,-262.4132 44.5,-252.4133 41.0001,-262.4133 48.0001,-262.4132"/>
</g>
<!-- 5 -->
<g id="node6" class="node">
<title>5</title>
<path fill="none" stroke="#d85656" stroke-width="2" stroke-dasharray="5,2" d="M77,-396C77,-396 12,-396 12,-396 6,-396 0,-390 0,-384 0,-384 0,-372 0,-372 0,-366 6,-360 12,-360 12,-360 77,-360 77,-360 83,-360 89,-366 89,-372 89,-372 89,-384 89,-384 89,-390 83,-396 77,-396"/>
<text text-anchor="middle" x="44.5" y="-381" font-family="sans" font-size="10.00" fill="#000000">create_hdf5</text>
<text text-anchor="middle" x="44.5" y="-370" font-family="sans" font-size="10.00" fill="#000000">sample: melanomaS2</text>
</g>
<!-- 5&#45;&gt;4 -->
<g id="edge5" class="edge">
<title>5&#45;&gt;4</title>
<path fill="none" stroke="#c0c0c0" stroke-width="2" d="M44.5,-359.8314C44.5,-352.131 44.5,-342.9743 44.5,-334.4166"/>
<polygon fill="#c0c0c0" stroke="#c0c0c0" stroke-width="2" points="48.0001,-334.4132 44.5,-324.4133 41.0001,-334.4133 48.0001,-334.4132"/>
</g>
</g>
</svg>
