<?xml version="1.0" encoding="UTF-8" standalone="no"?>
<!DOCTYPE svg PUBLIC "-//W3C//DTD SVG 1.1//EN"
 "http://www.w3.org/Graphics/SVG/1.1/DTD/svg11.dtd">
<!-- Generated by graphviz version 2.40.1 (20161225.0304)
 -->
<!-- Title: snakemake_dag Pages: 1 -->
<svg width="131pt" height="332pt"
 viewBox="0.00 0.00 131.00 332.00" xmlns="http://www.w3.org/2000/svg" xmlns:xlink="http://www.w3.org/1999/xlink">
<g id="graph0" class="graph" transform="scale(1 1) rotate(0) translate(4 328)">
<title>snakemake_dag</title>
<polygon fill="#ffffff" stroke="transparent" points="-4,4 -4,-328 127,-328 127,4 -4,4"/>
<!-- 0 -->
<g id="node1" class="node">
<title>0</title>
<path fill="none" stroke="#56d88a" stroke-width="2" d="M76.5,-36C76.5,-36 46.5,-36 46.5,-36 40.5,-36 34.5,-30 34.5,-24 34.5,-24 34.5,-12 34.5,-12 34.5,-6 40.5,0 46.5,0 46.5,0 76.5,0 76.5,0 82.5,0 88.5,-6 88.5,-12 88.5,-12 88.5,-24 88.5,-24 88.5,-30 82.5,-36 76.5,-36"/>
<text text-anchor="middle" x="61.5" y="-15.5" font-family="sans" font-size="10.00" fill="#000000">all</text>
</g>
<!-- 1 -->
<g id="node2" class="node">
<title>1</title>
<path fill="none" stroke="#d8bc56" stroke-width="2" stroke-dasharray="5,2" d="M86.5,-108C86.5,-108 36.5,-108 36.5,-108 30.5,-108 24.5,-102 24.5,-96 24.5,-96 24.5,-84 24.5,-84 24.5,-78 30.5,-72 36.5,-72 36.5,-72 86.5,-72 86.5,-72 92.5,-72 98.5,-78 98.5,-84 98.5,-84 98.5,-96 98.5,-96 98.5,-102 92.5,-108 86.5,-108"/>
<text text-anchor="middle" x="61.5" y="-87.5" font-family="sans" font-size="10.00" fill="#000000">phenograph</text>
</g>
<!-- 1&#45;&gt;0 -->
<g id="edge1" class="edge">
<title>1&#45;&gt;0</title>
<path fill="none" stroke="#c0c0c0" stroke-width="2" d="M61.5,-71.8314C61.5,-64.131 61.5,-54.9743 61.5,-46.4166"/>
<polygon fill="#c0c0c0" stroke="#c0c0c0" stroke-width="2" points="65.0001,-46.4132 61.5,-36.4133 58.0001,-46.4133 65.0001,-46.4132"/>
</g>
<!-- 2 -->
<g id="node3" class="node">
<title>2</title>
<path fill="none" stroke="#d85656" stroke-width="2" stroke-dasharray="5,2" d="M84.5,-180C84.5,-180 38.5,-180 38.5,-180 32.5,-180 26.5,-174 26.5,-168 26.5,-168 26.5,-156 26.5,-156 26.5,-150 32.5,-144 38.5,-144 38.5,-144 84.5,-144 84.5,-144 90.5,-144 96.5,-150 96.5,-156 96.5,-156 96.5,-168 96.5,-168 96.5,-174 90.5,-180 84.5,-180"/>
<text text-anchor="middle" x="61.5" y="-159.5" font-family="sans" font-size="10.00" fill="#000000">preprocess</text>
</g>
<!-- 2&#45;&gt;1 -->
<g id="edge2" class="edge">
<title>2&#45;&gt;1</title>
<path fill="none" stroke="#c0c0c0" stroke-width="2" d="M61.5,-143.8314C61.5,-136.131 61.5,-126.9743 61.5,-118.4166"/>
<polygon fill="#c0c0c0" stroke="#c0c0c0" stroke-width="2" points="65.0001,-118.4132 61.5,-108.4133 58.0001,-118.4133 65.0001,-118.4132"/>
</g>
<!-- 3 -->
<g id="node4" class="node">
<title>3</title>
<path fill="none" stroke="#88d856" stroke-width="2" stroke-dasharray="5,2" d="M107.5,-252C107.5,-252 15.5,-252 15.5,-252 9.5,-252 3.5,-246 3.5,-240 3.5,-240 3.5,-228 3.5,-228 3.5,-222 9.5,-216 15.5,-216 15.5,-216 107.5,-216 107.5,-216 113.5,-216 119.5,-222 119.5,-228 119.5,-228 119.5,-240 119.5,-240 119.5,-246 113.5,-252 107.5,-252"/>
<text text-anchor="middle" x="61.5" y="-231.5" font-family="sans" font-size="10.00" fill="#000000">filter_out_noncoding</text>
</g>
<!-- 3&#45;&gt;2 -->
<g id="edge3" class="edge">
<title>3&#45;&gt;2</title>
<path fill="none" stroke="#c0c0c0" stroke-width="2" d="M61.5,-215.8314C61.5,-208.131 61.5,-198.9743 61.5,-190.4166"/>
<polygon fill="#c0c0c0" stroke="#c0c0c0" stroke-width="2" points="65.0001,-190.4132 61.5,-180.4133 58.0001,-190.4133 65.0001,-190.4132"/>
</g>
<!-- 4 -->
<g id="node5" class="node">
<title>4</title>
<path fill="none" stroke="#56c1d8" stroke-width="2" stroke-dasharray="5,2" d="M111,-324C111,-324 12,-324 12,-324 6,-324 0,-318 0,-312 0,-312 0,-300 0,-300 0,-294 6,-288 12,-288 12,-288 111,-288 111,-288 117,-288 123,-294 123,-300 123,-300 123,-312 123,-312 123,-318 117,-324 111,-324"/>
<text text-anchor="middle" x="61.5" y="-309" font-family="sans" font-size="10.00" fill="#000000">create_hdf5</text>
<text text-anchor="middle" x="61.5" y="-298" font-family="sans" font-size="10.00" fill="#000000">sample: melanomaS2</text>
</g>
<!-- 4&#45;&gt;3 -->
<g id="edge4" class="edge">
<title>4&#45;&gt;3</title>
<path fill="none" stroke="#c0c0c0" stroke-width="2" d="M61.5,-287.8314C61.5,-280.131 61.5,-270.9743 61.5,-262.4166"/>
<polygon fill="#c0c0c0" stroke="#c0c0c0" stroke-width="2" points="65.0001,-262.4132 61.5,-252.4133 58.0001,-262.4133 65.0001,-262.4132"/>
</g>
</g>
</svg>
